<svg width="380" height="320" viewBox="0 0 380 320" fill="currentColor" xmlns="http://www.w3.org/2000/svg">
<path d="M293.012 5.71806L293.011 5.72353C292.775 9.64902 292.209 11.7944 290.764 13.9432L290.762 13.9464C289.435 15.8886 287.67 17.2252 281.784 20.8633C276.487 24.1376 274.037 26.2912 272.997 28.4236L272.997 28.4246C272.65 29.1324 272.488 29.537 272.413 29.9968C272.335 30.4705 272.345 31.0296 272.404 32.0575C272.461 32.9643 272.539 33.607 272.7 34.2338C272.86 34.8608 273.108 35.492 273.525 36.3684C275.579 40.643 278.107 43.4463 286.196 50.1553L286.198 50.1569C289.005 52.508 290.948 54.2129 292.272 55.5244C293.589 56.8284 294.336 57.7833 294.697 58.6372L294.697 58.6371L294.7 58.6424C294.704 58.6542 294.709 58.666 294.714 58.6778C294.883 59.0882 295.066 59.5345 295.013 60.0409C294.957 60.5717 294.658 61.0788 294.124 61.6904C293.061 62.906 290.783 64.8373 286.346 68.5864L286.346 68.5864C284.371 70.2544 282.226 72.2588 280.397 74.1039C278.56 75.9565 277.069 77.6224 276.38 78.6193C275.639 79.7011 274.975 80.9272 274.513 82.0102C274.282 82.5518 274.105 83.0495 273.993 83.4695C273.878 83.9018 273.844 84.2074 273.863 84.3842L273.863 84.3847C273.885 84.5848 273.905 84.7151 273.93 84.8059C273.949 84.8786 273.965 84.9029 273.968 84.9069C273.978 84.9141 274.047 84.9549 274.36 84.9925C274.671 85.0278 275.186 84.928 275.946 84.6006C276.69 84.2799 277.61 83.7679 278.703 83.0587C280.888 81.6411 283.719 79.4668 287.162 76.5527L287.162 76.5526C291.149 73.1804 298.38 66.1319 301.695 62.3563L301.698 62.3535C303.619 60.1984 305.141 58.8558 307.419 57.9344C309.665 57.0256 312.618 56.5389 317.361 55.9996L317.362 55.9995C319.324 55.7817 320.764 55.523 321.812 55.2009C322.863 54.878 323.469 54.5062 323.819 54.0978L323.819 54.0977L323.827 54.0887C323.926 53.9793 324.173 53.6239 324.509 53.1017C324.834 52.5965 325.218 51.9737 325.581 51.3645L325.582 51.363C325.912 50.8137 326.156 50.405 326.329 50.0949C326.432 49.9099 326.503 49.7731 326.549 49.672C326.27 49.6056 325.375 49.4138 324.225 49.1675C323.552 49.0233 322.792 48.8605 322.018 48.6932L322.015 48.6927C317.245 47.6403 312.99 46.5564 309.871 45.557C308.135 45.0081 306.929 44.7388 305.619 44.7006C304.3 44.6621 302.847 44.857 300.616 45.2794C298.307 45.729 296.934 45.9723 296.032 46.007C295.572 46.0247 295.199 45.9903 294.869 45.8845C294.534 45.777 294.277 45.6072 294.037 45.4089C293.68 45.1188 293.462 44.6934 293.336 44.2265C293.208 43.7558 293.161 43.2027 293.174 42.6031C293.2 41.4033 293.47 39.94 293.914 38.4084C294.8 35.3492 296.412 31.9093 298.324 29.608C299.889 27.7142 300.758 27.0088 305.692 23.3924C307.994 21.7043 309.292 20.4306 309.925 19.1024C310.545 17.8011 310.561 16.3709 310.089 14.2703L310.089 14.2697C308.722 8.15269 304.279 3.07117 298.607 1.14502L298.606 1.14461C296.595 0.456154 295.249 0.386108 294.307 0.755707C294.01 0.879028 293.723 1.17127 293.488 1.95371C293.251 2.7459 293.099 3.94247 293.012 5.71806ZM273.967 84.9058C273.967 84.9059 273.967 84.9062 273.968 84.9069C273.967 84.9062 273.967 84.9058 273.967 84.9058Z" fill="white" stroke="#303030"/>
<path d="M328.045 77.1163L328.045 77.1163L328.043 77.1213C327.445 79.3683 327.498 80.6948 328.1 81.9772L328.1 81.9772L328.102 81.9811C328.632 83.135 329.316 83.8761 330.322 84.3463C331.355 84.8288 332.772 85.0475 334.809 85.0475C339.184 85.0475 342.187 84.0411 344.16 82.0696C344.841 81.3896 345.285 80.7531 345.56 80.0391C345.837 79.322 345.957 78.4927 345.943 77.408C345.888 73.3309 342.437 69.3457 337.636 68.1046L337.636 68.1046L337.631 68.1032C336.403 67.7711 335.561 67.6431 334.907 67.6852C334.281 67.7254 333.804 67.9234 333.305 68.3066C332.382 69.0399 331.258 70.4743 330.258 72.1406C329.261 73.8016 328.423 75.6315 328.045 77.1163Z" fill="white" stroke="#303030"/>
<path d="M307.453 80.8364L307.425 80.8322C307.401 80.8377 307.376 80.843 307.35 80.8482C307.259 80.8668 307.135 80.8889 306.991 80.913C306.7 80.9614 306.308 81.0205 305.88 81.0794C305.489 81.1334 305.056 81.2359 304.673 81.3566C304.283 81.4794 303.984 81.6085 303.835 81.7033C303.538 81.9021 303.14 82.3238 302.682 82.9464C302.231 83.5597 301.751 84.3292 301.285 85.1784C300.352 86.8802 299.501 88.8628 299.076 90.4906C298.578 92.4236 298.543 94.0508 298.887 95.2772C299.227 96.4875 299.933 97.3047 300.961 97.6929L300.962 97.6934C301.206 97.7862 301.748 97.8939 302.571 98.0019C303.376 98.1074 304.401 98.2077 305.576 98.3C307.925 98.4844 310.854 98.6356 313.78 98.7339C316.705 98.8323 319.621 98.8777 321.94 98.8514C323.101 98.8382 324.107 98.8071 324.889 98.7563C325.693 98.704 326.197 98.6336 326.403 98.564C326.893 98.3915 327.176 98.1814 327.301 98.0126C327.36 97.9331 327.376 97.8741 327.379 97.8362C327.382 97.8013 327.376 97.7541 327.336 97.6882L327.336 97.6882L327.332 97.6808C326.917 96.9627 325.447 95.0326 323.787 92.9746C322.137 90.9285 320.343 88.8116 319.307 87.7334L319.305 87.7317C315.392 83.6197 312.383 81.7198 309.054 81.105C308.576 81.0182 308.142 80.9459 307.827 80.8952C307.669 80.8699 307.541 80.85 307.453 80.8364Z" fill="white" stroke="#303030"/>
<path d="M42.7374 97.3387L42.737 97.3389C42.1444 97.7694 41.3174 98.6528 40.9463 99.2877C39.6439 101.544 39.1681 105.019 39.4627 108.321C39.6093 109.963 39.9447 111.538 40.4473 112.869C40.952 114.206 41.6114 115.26 42.3823 115.907C42.5964 116.083 43.1237 116.421 43.8336 116.84C44.5311 117.251 45.3714 117.721 46.1839 118.156C48.9668 119.598 51.075 121.248 52.7944 123.512C54.5087 125.768 55.8161 128.609 57.0376 132.402L57.0379 132.403C62.172 148.457 65.6958 156.603 74.3331 172.313C76.7543 176.666 79.9315 179.584 92.1043 188.265C92.399 188.474 92.6851 188.678 92.9627 188.876C97.4834 192.094 99.779 193.728 101.106 194.583C101.81 195.037 102.214 195.253 102.515 195.371C102.8 195.482 103.006 195.511 103.359 195.562L103.372 195.563L103.378 195.564C105.105 195.832 106.906 195.251 108.284 194.172C109.664 193.092 110.563 191.561 110.577 189.983C110.577 189.636 110.555 189.363 110.471 189.058C110.385 188.747 110.229 188.38 109.933 187.86C109.336 186.809 108.222 185.221 106.141 182.336L106.14 182.335C99.937 173.684 98.5094 171.015 97.4342 165.973L97.4339 165.972C96.0188 159.25 92.6031 151.687 86.7422 142.309L86.7417 142.308C83.1713 136.567 80.7709 133.647 74.4735 127.211C70.203 122.858 67.7247 120.061 65.9762 117.604C62.939 113.357 57.476 107.635 50.4124 101.337C48.8754 99.9702 47.7246 98.9495 46.8269 98.2064C45.9225 97.4579 45.3083 97.0199 44.8409 96.7929C44.3979 96.5779 44.1304 96.5728 43.8842 96.6468C43.5871 96.7361 43.2676 96.9528 42.7374 97.3387Z" fill="white" stroke="#303030"/>
<path d="M335.672 104.744L335.67 104.747C334.009 106.862 332.221 108.905 330.651 110.514C329.866 111.318 329.131 112.018 328.491 112.566C327.86 113.105 327.291 113.523 326.84 113.736C325.827 114.225 324.873 114.423 323.679 114.254C322.516 114.09 321.145 113.581 319.283 112.717C316.73 111.551 315.039 110.921 313.52 110.692C312.02 110.465 310.654 110.624 308.742 111.112L308.742 111.112C306.007 111.81 303.14 113.239 300.727 114.985C298.306 116.738 296.393 118.773 295.508 120.651L295.508 120.651L295.506 120.655C295.11 121.475 294.934 121.947 294.891 122.315C294.851 122.645 294.915 122.926 295.128 123.378L295.128 123.378L295.13 123.384C295.284 123.72 295.494 123.985 295.845 124.214C296.21 124.452 296.746 124.662 297.571 124.844C299.228 125.209 301.896 125.427 306.303 125.632L306.304 125.632C313.545 125.982 316.501 126.42 319.055 127.574L319.055 127.574L319.06 127.576C320.154 128.085 320.976 128.58 321.711 129.29C322.441 129.996 323.06 130.89 323.785 132.16C325.383 134.943 326.394 136.542 327.271 137.502C327.702 137.973 328.089 138.277 328.485 138.487C328.882 138.698 329.31 138.828 329.841 138.924C330.069 138.965 330.47 138.978 331.016 138.956C331.552 138.934 332.194 138.878 332.886 138.796C334.273 138.63 335.836 138.356 337.11 138.027L337.113 138.026C340.344 137.209 343.722 134.995 346.503 132.106C349.283 129.218 351.418 125.704 352.211 122.339C352.581 120.721 352.632 119.537 352.283 118.316C351.93 117.076 351.15 115.749 349.754 113.875L349.753 113.874C348.716 112.468 345.832 109.497 343.076 106.858C341.704 105.543 340.376 104.324 339.344 103.437C338.826 102.992 338.39 102.637 338.062 102.396C337.948 102.313 337.852 102.246 337.773 102.196C337.645 102.334 337.471 102.531 337.262 102.777C336.833 103.281 336.267 103.976 335.672 104.744Z" fill="white" stroke="#303030"/>
<path d="M227.119 152.324L227.121 152.324C230.03 152.164 232.038 151.987 233.454 151.729C234.864 151.472 235.759 151.122 236.376 150.559C236.661 150.298 236.901 150.013 237.053 149.663C237.206 149.308 237.252 148.926 237.208 148.497C237.125 147.678 236.706 146.61 235.995 145.075C234.931 142.746 234.555 141.012 234.828 139.455C235.102 137.9 236.04 136.428 237.823 134.662C239.98 132.536 242.061 131.089 244.238 130.185C245.647 129.614 247.019 129.461 248.007 129.631C248.502 129.717 248.867 129.877 249.098 130.072C249.316 130.256 249.423 130.474 249.423 130.745C249.423 130.91 249.479 131.481 249.557 132.214C249.638 132.968 249.748 133.94 249.865 134.948L249.865 134.949C250.597 141.152 251.953 145.378 254.112 147.751C255.336 149.112 256.625 149.932 258.268 150.188C259.884 150.439 261.785 150.134 264.218 149.383C264.982 149.153 265.72 148.96 266.292 148.835C266.58 148.773 266.817 148.73 266.992 148.707C267.069 148.697 267.127 148.692 267.167 148.691C267.199 148.719 267.238 148.787 267.246 148.957C267.259 149.213 267.185 149.587 267.005 150.037C266.647 150.931 265.936 151.961 265.071 152.663L265.066 152.667C264.394 153.226 262.142 154.757 260.035 156.072L260.033 156.074C256.418 158.36 254.205 159.911 252.904 161.309C252.244 162.018 251.805 162.702 251.536 163.435C251.267 164.167 251.177 164.92 251.177 165.752V165.759C251.208 168.1 251.957 169.848 255.306 175.694L255.306 175.694C258.653 181.532 260.61 185.57 261.457 188.76C262.295 191.914 262.045 194.226 260.955 196.641C259.518 199.822 257.739 201.768 249.629 208.641L249.625 208.644C247.675 210.33 245.418 212.431 244.682 213.35C242.965 215.456 241.124 219.201 240.348 222.21C240.348 222.211 240.348 222.211 240.348 222.211L240.832 222.336C240.014 225.46 239.809 232.526 240.365 237.956L227.119 152.324ZM227.119 152.324C221.42 152.615 218.908 153.192 216.112 154.743M227.119 152.324L207.627 164.502M179.623 185.986C179.33 186.771 179.069 187.406 178.813 187.906C178.559 188.402 178.291 188.8 177.967 189.082C177.259 189.697 176.442 189.63 175.496 189.39C175.092 189.289 174.356 188.983 173.527 188.6C172.681 188.209 171.694 187.716 170.765 187.215C167.855 185.681 166.043 184.755 164.775 184.19C163.515 183.629 162.821 183.438 162.145 183.358C160.96 183.224 160.249 183.472 159.751 184.102C159.205 184.793 158.84 186.028 158.636 188.078C158.062 194.07 159.962 204.175 163.724 214.575L163.724 214.575C166.361 221.898 169.626 227.118 174.715 232.201C179.094 236.575 185.116 240.732 189.564 242.423L189.567 242.425C190.596 242.824 191.196 243.021 192.391 243.164C193.617 243.311 195.449 243.398 198.938 243.559C206.819 243.91 208.019 244.029 214.075 245.351C219.504 246.511 223.73 246.915 228.975 246.712L228.976 246.712C234.762 246.508 237.696 245.628 239.269 243.979L179.155 185.81M179.623 185.986C179.624 185.986 179.624 185.986 179.624 185.986L179.155 185.81M179.623 185.986C179.623 185.987 179.623 185.987 179.623 185.987L179.155 185.81M179.623 185.986C181.016 182.305 182.364 179.859 183.943 178.084M179.155 185.81C180.558 182.102 181.932 179.591 183.569 177.752M183.943 178.084C183.942 178.085 183.942 178.085 183.942 178.085L183.569 177.752M183.943 178.084C184.635 177.31 185.596 176.537 186.612 175.911C187.632 175.283 188.673 174.824 189.516 174.65L189.519 174.65C190.99 174.338 193.559 173.609 195.948 172.864C198.322 172.123 200.586 171.345 201.419 170.929L201.42 170.928C202.971 170.147 204.025 169.496 204.946 168.541C205.859 167.594 206.617 166.373 207.627 164.502M183.943 178.084C183.943 178.084 183.943 178.084 183.943 178.084L183.569 177.752M183.569 177.752L207.627 164.502M207.627 164.502C207.627 164.502 207.626 164.503 207.626 164.503L207.188 164.263L207.628 164.5C207.627 164.501 207.627 164.501 207.627 164.502ZM207.627 164.502C210.675 158.935 212.664 156.663 216.112 154.743M216.112 154.743C216.112 154.744 216.112 154.744 216.112 154.744L215.869 154.307L216.112 154.743ZM267.21 148.691C267.214 148.691 267.214 148.691 267.208 148.69L267.21 148.691Z" fill="white" stroke="#303030"/>
<path d="M7.94752 145.976L7.94878 145.976C8.56046 145.705 9.49329 145.566 10.6908 145.583C11.8772 145.599 13.2779 145.766 14.795 146.071C17.8296 146.679 21.2881 147.826 24.3607 149.353L24.3647 149.355C27.5663 150.911 28.8496 151.763 32.3651 154.607C33.7822 155.757 38.3544 159.123 42.5322 162.1C53.3883 169.883 56.4952 172.436 64.833 180.677C75.0295 190.773 77.6254 192.865 91.0624 202.134L91.0631 202.135C95.1022 204.912 99.261 207.905 100.321 208.792L100.327 208.797L100.327 208.797C101.384 209.654 105.456 213.545 109.351 217.406C113.615 221.665 115.945 223.944 117.813 225.18C119.743 226.456 121.198 226.629 123.616 226.777M7.94752 145.976L123.646 226.277M7.94752 145.976C7.25828 146.279 6.85079 146.595 6.62965 146.922C6.4201 147.232 6.34126 147.607 6.42722 148.122L6.42744 148.124C6.55032 148.873 6.94254 149.783 7.67756 150.892C8.41016 151.997 9.46536 153.272 10.8806 154.749C13.7116 157.703 17.9445 161.425 23.8153 166.151L23.8157 166.151C31.4367 172.299 43.27 183.738 48.6726 190.19M7.94752 145.976L23.5017 166.54C31.1017 172.672 42.911 184.088 48.2894 190.511M123.616 226.777L123.646 226.277M123.616 226.777C123.616 226.777 123.615 226.776 123.615 226.776L123.646 226.277M123.616 226.777C125.27 226.88 126.151 226.966 126.773 227.169C127.348 227.356 127.716 227.649 128.309 228.283L128.312 228.286C129.323 229.349 129.869 230.797 129.869 232.496C129.869 234.677 129.243 236.505 127.595 238.804L127.592 238.808C123.507 244.646 121.746 251.445 120.984 264.175L120.984 264.175C120.779 267.635 120.619 269.549 120.328 270.763C120.186 271.358 120.017 271.761 119.809 272.084C119.601 272.408 119.338 272.677 118.969 272.99M123.646 226.277C126.92 226.482 127.446 226.628 128.674 227.942C129.785 229.11 130.369 230.686 130.369 232.496C130.369 234.803 129.697 236.73 128.002 239.095C123.997 244.818 122.243 251.504 121.483 264.204C121.074 271.095 120.84 272.058 119.291 273.372M118.969 272.99C118.969 272.99 118.969 272.989 118.97 272.989L119.291 273.372M118.969 272.99C118.969 272.99 118.968 272.991 118.968 272.991L119.291 273.372M118.969 272.99C118.632 273.272 118.372 273.429 118.096 273.523C117.816 273.618 117.485 273.66 116.984 273.661M119.291 273.372C118.56 273.985 118.034 274.161 116.982 274.161M116.982 274.161L116.987 273.661C116.986 273.661 116.985 273.661 116.984 273.661M116.982 274.161C114.205 274.131 112.1 272.555 109.469 268.438L77.9587 243.183C73.8371 239.912 65.214 227.416 60.5371 217.956C57.4387 211.708 56.6787 209.46 56.1233 204.847C55.5971 200.672 53.4048 196.613 48.2894 190.511M116.982 274.161V273.661C116.983 273.661 116.984 273.661 116.984 273.661M116.984 273.661C114.471 273.633 112.496 272.245 109.891 268.169L109.888 268.165C109.004 266.811 107.701 265.063 107.002 264.304L107.001 264.302C104.004 261.072 96.677 255.465 86.22 248.346L86.2189 248.345C82.5861 245.887 79.0122 243.39 78.2726 242.793L78.2694 242.791C76.2741 241.208 73.1252 237.325 69.8676 232.606C66.6224 227.906 63.3107 222.438 60.9853 217.735L60.9851 217.734C57.9003 211.514 57.1657 209.323 56.6197 204.787L56.6194 204.784C56.0747 200.462 53.8048 196.312 48.6726 190.19M48.6726 190.19C48.6727 190.19 48.6727 190.19 48.6728 190.19L48.2894 190.511M48.6726 190.19L48.2894 190.511" fill="white" stroke="#303030"/>
<path d="M371.555 183.712L371.552 183.714C368.909 186.312 366.397 190.323 364.528 194.616C362.658 198.908 361.455 203.424 361.383 207.015C361.355 209.941 361.876 211.506 363.112 212.587L363.112 212.587L363.118 212.593C364.168 213.54 365.302 213.89 366.473 213.752C367.663 213.612 368.948 212.96 370.25 211.792C372.859 209.454 375.417 205.16 377.274 199.409L377.274 199.408C378.752 194.834 379.325 191.587 379.325 187.591L379.325 187.588C379.339 185.675 379.222 184.249 378.967 183.215C378.711 182.18 378.333 181.6 377.877 181.289L377.877 181.289L377.868 181.283C377.587 181.083 377.036 180.946 376.339 180.956C375.664 180.966 374.944 181.114 374.378 181.381C374.147 181.505 373.71 181.817 373.18 182.249C372.654 182.678 372.068 183.199 371.555 183.712Z" fill="white" stroke="#303030"/>
<path d="M331.289 190.766L331.272 190.77L331.255 190.772C330.853 190.83 326.915 191.471 322.497 192.201C318.087 192.931 311.839 194.068 308.633 194.738L308.633 194.738C305.906 195.306 304.355 195.618 302.988 195.778C301.611 195.939 300.428 195.945 298.44 195.916C295.547 195.887 292.25 195.592 288.348 195.006L282.828 194.226L282.102 195.046C282.101 195.046 282.101 195.046 282.101 195.046C279.491 198.014 279.725 201.704 282.331 203.501L282.332 203.501C284.832 205.23 287.738 205.633 294.298 204.934C296.248 204.705 301.154 204.171 306.277 203.615C307.695 203.46 309.13 203.304 310.523 203.153C316.95 202.452 323.537 201.78 325.156 201.662L325.161 201.662C326.083 201.604 326.888 201.511 327.539 201.391C328.201 201.27 328.668 201.127 328.937 200.987L328.937 200.987L328.944 200.983C329.555 200.678 330.277 200.085 331.025 199.292C331.767 198.507 332.509 197.553 333.164 196.56C333.82 195.567 334.381 194.547 334.766 193.629C335.157 192.696 335.339 191.93 335.304 191.423C335.304 191.423 335.304 191.422 335.304 191.422L335.251 190.712L333.808 190.69L333.802 190.69C333.284 190.675 332.738 190.675 332.274 190.69C331.795 190.704 331.444 190.733 331.289 190.766Z" fill="white" stroke="#303030"/>
<path d="M271.755 223.876L271.755 223.876C271.272 226.831 270.894 228.731 270.209 230.81C269.527 232.881 268.543 235.118 266.863 238.75L266.863 238.751C265.67 241.323 265.19 243.107 265.332 244.485C265.469 245.811 266.195 246.85 267.688 247.91C268.218 248.268 268.543 248.448 268.893 248.549C269.248 248.651 269.668 248.683 270.404 248.668L270.408 248.668C271.526 248.655 272.79 248.297 274.558 247.364C276.329 246.43 278.57 244.937 281.635 242.692L281.636 242.691C284.308 240.737 286.044 239.518 287.329 238.759C288.626 237.993 289.494 237.677 290.427 237.549L290.427 237.549C291.124 237.453 291.771 237.588 292.341 237.967C292.901 238.339 293.353 238.921 293.721 239.666C294.451 241.144 294.91 243.391 295.145 246.355L295.145 246.358C295.305 248.551 295.521 250.029 295.941 251.336C296.359 252.638 296.988 253.799 298.014 255.343C299.798 257.993 301.935 259.947 304.658 261.332C307.388 262.72 310.733 263.549 314.946 263.911L314.947 263.911C315.204 263.934 315.422 263.957 315.611 263.977C315.943 264.012 316.183 264.037 316.382 264.035C316.501 264.034 316.559 264.021 316.582 264.013C316.597 263.978 316.62 263.89 316.626 263.704C316.631 263.522 316.618 263.281 316.588 262.961C316.547 262.53 316.478 261.99 316.39 261.303C316.347 260.965 316.299 260.592 316.248 260.178C315.2 251.743 312.847 244.609 309.889 240.773L309.885 240.768C308.422 238.828 307.257 237.875 303.624 235.668L303.621 235.667C300.908 233.997 298.78 232.522 297.248 231.237C295.737 229.969 294.736 228.83 294.38 227.818C294.164 227.221 294.478 226.614 294.936 226.157C295.084 226.009 295.247 225.861 295.458 225.748C295.675 225.632 295.911 225.569 296.193 225.536C296.727 225.475 297.533 225.517 298.886 225.603C307.183 226.101 308.372 226.123 310.232 225.813C311.496 225.603 312.809 225.166 313.927 224.62C315.057 224.068 315.934 223.431 316.376 222.85L316.379 222.847C316.714 222.415 316.873 222.139 316.965 221.814C317.061 221.471 317.092 221.037 317.092 220.263C317.092 219.276 316.971 218.626 316.693 218.098C316.415 217.571 315.951 217.108 315.148 216.559C314.607 216.191 313.728 215.866 312.537 215.615C311.357 215.367 309.91 215.199 308.265 215.12C304.976 214.961 300.93 215.156 296.703 215.736C290.045 216.674 286.736 216.599 283.233 215.423L283.232 215.423C281.227 214.746 278.26 213.524 277.011 212.866C276.961 212.883 276.897 212.906 276.818 212.937C276.582 213.029 276.268 213.168 275.921 213.327C274.674 213.952 273.666 215.223 273.053 217.089C272.947 217.42 272.748 218.335 272.509 219.583C272.272 220.819 272.003 222.347 271.755 223.876Z" fill="white" stroke="#303030"/>
<path d="M127.239 269.491L127.244 269.489C128.534 269 130.303 269.22 131.781 270.095L131.79 270.1L131.79 270.1C133.01 270.789 134.15 272.141 136.113 275.243C136.61 276.047 136.985 276.589 137.461 277.023C137.94 277.46 138.495 277.763 139.305 278.146L139.312 278.149L139.312 278.149C140.308 278.601 140.909 278.852 142.509 279.083C144.071 279.308 146.619 279.521 151.521 279.914C153.625 280.09 156.132 280.408 157.14 280.66L157.146 280.662L157.146 280.662C158.385 280.957 159.935 281.555 161.339 282.241C162.755 282.934 163.956 283.685 164.537 284.266L164.547 284.276L164.547 284.276L165.629 285.298L166.01 285.658L166.352 285.26L166.873 284.653C167.252 284.238 167.847 283.812 168.892 283.282C169.939 282.75 171.403 282.129 173.491 281.313C173.491 281.313 173.491 281.313 173.491 281.312L177.266 279.849L185.185 281.598L127.239 269.491ZM127.239 269.491C125.202 270.242 123.484 271.944 122.429 274.009C121.374 276.074 121.012 278.445 121.612 280.502C122.077 282.086 123.295 283.899 124.888 285.497C126.478 287.092 128.391 288.423 130.19 289.078L130.19 289.078C132.569 289.946 136.135 290.576 139.979 290.885C143.816 291.193 147.888 291.178 151.268 290.774L127.239 269.491ZM151.268 290.774C154.545 290.381 157.3 289.91 159.473 289.372C161.659 288.832 163.209 288.236 164.111 287.617L164.111 287.617L164.119 287.612C164.438 287.402 164.692 287.235 164.889 287.116C165.066 287.01 165.263 286.899 165.447 286.861C165.549 286.84 165.713 286.826 165.88 286.912C166.056 287.002 166.14 287.152 166.179 287.259C166.216 287.359 166.227 287.46 166.232 287.531C166.238 287.604 166.238 287.684 166.239 287.759C166.239 287.763 166.245 287.792 166.274 287.852C166.31 287.931 166.371 288.035 166.463 288.164C166.647 288.423 166.924 288.745 167.284 289.116C168.003 289.856 169.012 290.751 170.155 291.673C172.449 293.52 175.227 295.427 177.207 296.366L177.209 296.367C179.124 297.287 180.677 297.838 182.521 298.138C184.375 298.44 186.542 298.493 189.692 298.391L189.692 298.391C195.259 298.214 198.888 298.511 207.467 299.798C210.598 300.263 213.101 300.501 214.983 300.522C215.925 300.533 216.7 300.489 217.315 300.397C217.937 300.304 218.361 300.165 218.624 300.008L218.626 300.008C218.921 299.833 219.097 299.681 219.182 299.573C219.195 299.557 219.204 299.545 219.211 299.535C219.155 299.361 219.136 299.165 219.187 298.978C219.229 298.822 219.343 298.633 219.541 298.538C219.541 298.536 219.542 298.533 219.543 298.53C219.58 298.383 219.608 298.15 219.608 297.869C219.608 297.155 219.33 296.27 218.783 295.275C218.239 294.288 217.451 293.228 216.481 292.175C214.539 290.067 211.906 288.025 209.159 286.667L209.157 286.666C207.53 285.854 206.568 285.602 203.91 285.255C199.849 284.756 195.676 283.933 185.186 281.598L151.268 290.774ZM219.229 299.501C219.229 299.501 219.227 299.504 219.226 299.508C219.229 299.503 219.229 299.501 219.229 299.501Z" fill="white" stroke="#303030"/>
<path d="M337.206 292.936C337.211 292.934 337.226 292.93 337.255 292.924C337.294 292.916 337.345 292.907 337.408 292.898C337.536 292.879 337.702 292.861 337.894 292.845C338.279 292.813 338.755 292.792 339.223 292.792H339.229L339.229 292.792C342.892 292.75 346.824 294.56 349.546 296.973C350.904 298.176 351.932 299.505 352.476 300.789C353.018 302.069 353.065 303.262 352.547 304.267L337.206 292.936ZM337.206 292.936L337.195 292.94M337.206 292.936L337.195 292.94M337.195 292.94C336.22 293.278 335.504 293.629 334.797 294.165C334.082 294.707 333.358 295.454 332.386 296.613L332.386 296.613M337.195 292.94L332.386 296.613M332.386 296.613L332.384 296.616M332.386 296.613L332.384 296.616M332.384 296.616C331.209 297.995 328.603 300.919 326.586 303.139L326.583 303.142M332.384 296.616L326.583 303.142M326.583 303.142C324.571 305.327 322.392 307.823 321.728 308.658C320.09 310.798 319.09 312.774 318.724 314.46C318.36 316.139 318.628 317.491 319.465 318.48L319.465 318.48M326.583 303.142L319.465 318.48M319.465 318.48L319.467 318.482M319.465 318.48L319.467 318.482M319.467 318.482C320.193 319.35 321.356 319.688 323.208 319.299M319.467 318.482L323.208 319.299M323.208 319.299C325.071 318.908 327.519 317.798 330.633 315.923M323.208 319.299L330.633 315.923M330.633 315.923C332.142 314.995 334.436 313.458 335.707 312.506C336.741 311.72 337.428 311.231 338.148 310.885C338.874 310.536 339.611 310.344 340.726 310.11C344.094 309.37 346.753 308.505 348.726 307.517C350.704 306.525 351.943 305.434 352.547 304.267L330.633 315.923Z" fill="white" stroke="#303030"/>
<path d="M273.768 305.843L273.761 305.846L273.754 305.848C272.785 306.162 271.825 306.719 271.04 307.382C270.249 308.05 269.672 308.794 269.42 309.461C269.275 309.847 269.131 310.829 269.131 311.679C269.131 312.719 269.416 313.631 269.988 314.432C270.564 315.239 271.449 315.958 272.683 316.575L272.683 316.575L272.687 316.577C275.359 317.939 277.964 318.025 279.873 317.202C281.762 316.386 283.025 314.661 283.039 312.232C283.038 310.257 282.405 308.693 281.285 307.598C280.162 306.499 278.499 305.824 276.354 305.726L276.351 305.726C275.812 305.697 275.237 305.697 274.751 305.722C274.24 305.748 273.894 305.798 273.768 305.843Z" fill="white" stroke="#303030"/>
<circle cx="12.1003" cy="267.504" r="3" fill="#FCB500"/>
<path d="M25.1463 272.13C24.4557 272.13 23.8583 271.985 23.3543 271.696C22.8503 271.406 22.4583 271 22.1783 270.478C21.9077 269.946 21.7723 269.316 21.7723 268.588C21.7723 267.86 21.9077 267.234 22.1783 266.712C22.4583 266.18 22.8503 265.769 23.3543 265.48C23.8583 265.19 24.4557 265.046 25.1463 265.046C25.8183 265.046 26.4063 265.19 26.9103 265.48C27.4143 265.769 27.8063 266.18 28.0863 266.712C28.3663 267.234 28.5063 267.86 28.5063 268.588C28.5063 269.316 28.3663 269.946 28.0863 270.478C27.8063 271 27.4143 271.406 26.9103 271.696C26.4063 271.985 25.8183 272.13 25.1463 272.13ZM25.1463 271.038C25.725 271.038 26.1917 270.828 26.5463 270.408C26.901 269.988 27.0783 269.381 27.0783 268.588C27.0783 267.794 26.901 267.192 26.5463 266.782C26.1917 266.362 25.725 266.152 25.1463 266.152C24.5583 266.152 24.087 266.362 23.7323 266.782C23.3777 267.192 23.2003 267.794 23.2003 268.588C23.2003 269.381 23.3777 269.988 23.7323 270.408C24.087 270.828 24.5583 271.038 25.1463 271.038ZM30.6417 272.06C30.3617 272.06 30.1377 271.976 29.9697 271.808C29.811 271.64 29.7317 271.425 29.7317 271.164C29.7317 270.902 29.811 270.692 29.9697 270.534C30.1377 270.366 30.3617 270.282 30.6417 270.282C30.9123 270.282 31.127 270.366 31.2857 270.534C31.4443 270.692 31.5237 270.902 31.5237 271.164C31.5237 271.425 31.4443 271.64 31.2857 271.808C31.127 271.976 30.9123 272.06 30.6417 272.06ZM41.5473 272.13C40.5487 272.13 39.6947 271.924 38.9853 271.514C38.276 271.103 37.73 270.52 37.3473 269.764C36.974 268.998 36.7873 268.098 36.7873 267.062C36.7873 266.026 36.974 265.13 37.3473 264.374C37.73 263.618 38.276 263.034 38.9853 262.624C39.6947 262.213 40.5487 262.008 41.5473 262.008C42.098 262.008 42.6253 262.082 43.1293 262.232C43.6427 262.381 44.086 262.596 44.4593 262.876C44.6647 263.006 44.7813 263.165 44.8093 263.352C44.8467 263.529 44.8187 263.692 44.7253 263.842C44.6413 263.982 44.5153 264.075 44.3473 264.122C44.1793 264.168 43.9927 264.122 43.7873 263.982C43.47 263.748 43.1247 263.576 42.7513 263.464C42.3873 263.352 42 263.296 41.5893 263.296C40.5253 263.296 39.7133 263.622 39.1533 264.276C38.5933 264.929 38.3133 265.858 38.3133 267.062C38.3133 268.266 38.5933 269.199 39.1533 269.862C39.7133 270.515 40.5253 270.842 41.5893 270.842C42 270.842 42.392 270.786 42.7653 270.674C43.148 270.562 43.5073 270.384 43.8433 270.142C44.0487 270.011 44.2307 269.969 44.3893 270.016C44.548 270.053 44.6693 270.142 44.7533 270.282C44.8373 270.422 44.8653 270.58 44.8373 270.758C44.8093 270.926 44.7113 271.07 44.5433 271.192C44.1513 271.5 43.694 271.733 43.1713 271.892C42.658 272.05 42.1167 272.13 41.5473 272.13ZM47.8919 274.622C47.6305 274.622 47.4485 274.524 47.3459 274.328C47.2525 274.141 47.2619 273.922 47.3739 273.67L48.1999 271.822L45.7079 266.04C45.5959 265.788 45.5912 265.564 45.6939 265.368C45.8059 265.172 46.0205 265.074 46.3379 265.074C46.5059 265.074 46.6412 265.116 46.7439 265.2C46.8559 265.284 46.9539 265.428 47.0379 265.634L48.9559 270.366L50.9019 265.634C50.9859 265.419 51.0839 265.274 51.1959 265.2C51.3079 265.116 51.4619 265.074 51.6579 265.074C51.9099 265.074 52.0825 265.172 52.1759 265.368C52.2692 265.564 52.2645 265.783 52.1619 266.026L48.6619 274.076C48.5685 274.29 48.4612 274.435 48.3399 274.51C48.2279 274.584 48.0785 274.622 47.8919 274.622ZM54.3354 272.102C53.9154 272.102 53.7054 271.878 53.7054 271.43V265.83C53.7054 265.326 53.92 265.074 54.3494 265.074C54.5547 265.074 54.7134 265.125 54.8254 265.228C54.9374 265.33 55.0307 265.447 55.1054 265.578L57.3454 269.498L59.5714 265.578C59.6554 265.438 59.7534 265.321 59.8654 265.228C59.9774 265.125 60.1314 265.074 60.3274 265.074C60.7567 265.074 60.9714 265.326 60.9714 265.83V271.43C60.9714 271.878 60.7614 272.102 60.3414 272.102C59.9307 272.102 59.7254 271.878 59.7254 271.43V267.37L57.8354 270.646C57.7887 270.73 57.728 270.804 57.6534 270.87C57.5787 270.935 57.476 270.968 57.3454 270.968C57.2054 270.968 57.098 270.935 57.0234 270.87C56.958 270.795 56.902 270.72 56.8554 270.646L54.9514 267.37V271.43C54.9514 271.878 54.746 272.102 54.3354 272.102ZM65.2959 272.13C64.8199 272.13 64.3953 272.036 64.0219 271.85C63.6486 271.663 63.3499 271.411 63.1259 271.094C62.9113 270.776 62.8039 270.417 62.8039 270.016C62.8039 269.512 62.9299 269.115 63.1819 268.826C63.4433 268.536 63.8679 268.326 64.4559 268.196C65.0533 268.065 65.8559 268 66.8639 268H67.3399V267.636C67.3399 267.104 67.2279 266.721 67.0039 266.488C66.7799 266.254 66.4113 266.138 65.8979 266.138C65.5993 266.138 65.2866 266.175 64.9599 266.25C64.6426 266.324 64.3113 266.45 63.9659 266.628C63.7699 266.721 63.6066 266.735 63.4759 266.67C63.3546 266.604 63.2706 266.502 63.2239 266.362C63.1773 266.222 63.1819 266.077 63.2379 265.928C63.2939 265.778 63.4106 265.666 63.5879 265.592C63.9986 265.405 64.4046 265.27 64.8059 265.186C65.2073 265.092 65.5853 265.046 65.9399 265.046C66.8733 265.046 67.5639 265.27 68.0119 265.718C68.4599 266.156 68.6839 266.847 68.6839 267.79V271.388C68.6839 271.864 68.4646 272.102 68.0259 272.102C67.5779 272.102 67.3539 271.864 67.3539 271.388V270.87C67.1859 271.262 66.9246 271.57 66.5699 271.794C66.2153 272.018 65.7906 272.13 65.2959 272.13ZM65.5759 271.122C66.0799 271.122 66.4999 270.944 66.8359 270.59C67.1719 270.235 67.3399 269.787 67.3399 269.246V268.868H66.8779C66.1966 268.868 65.6599 268.9 65.2679 268.966C64.8853 269.031 64.6099 269.143 64.4419 269.302C64.2833 269.451 64.2039 269.661 64.2039 269.932C64.2039 270.286 64.3253 270.576 64.5679 270.8C64.8106 271.014 65.1466 271.122 65.5759 271.122ZM72.9235 272.102C72.4475 272.102 72.2095 271.864 72.2095 271.388V266.306H70.3055C69.8949 266.306 69.6895 266.114 69.6895 265.732C69.6895 265.358 69.8949 265.172 70.3055 265.172H75.5275C75.9382 265.172 76.1435 265.358 76.1435 265.732C76.1435 266.114 75.9382 266.306 75.5275 266.306H73.6235V271.388C73.6235 271.864 73.3902 272.102 72.9235 272.102ZM77.894 274.622C77.4273 274.622 77.194 274.384 77.194 273.908V265.788C77.194 265.312 77.4226 265.074 77.88 265.074C78.3466 265.074 78.58 265.312 78.58 265.788V266.32C78.7853 265.928 79.0886 265.62 79.49 265.396C79.8913 265.162 80.3486 265.046 80.862 265.046C81.4686 265.046 81.996 265.19 82.444 265.48C82.9013 265.769 83.2513 266.18 83.494 266.712C83.746 267.234 83.872 267.86 83.872 268.588C83.872 269.316 83.746 269.946 83.494 270.478C83.2513 271.01 82.9013 271.42 82.444 271.71C81.996 271.99 81.4686 272.13 80.862 272.13C80.358 272.13 79.9053 272.022 79.504 271.808C79.112 271.584 78.8133 271.28 78.608 270.898V273.908C78.608 274.384 78.37 274.622 77.894 274.622ZM80.512 271.038C81.1 271.038 81.5666 270.828 81.912 270.408C82.2666 269.988 82.444 269.381 82.444 268.588C82.444 267.794 82.2666 267.192 81.912 266.782C81.5666 266.362 81.1 266.152 80.512 266.152C79.924 266.152 79.4526 266.362 79.098 266.782C78.7526 267.192 78.58 267.794 78.58 268.588C78.58 269.381 78.7526 269.988 79.098 270.408C79.4526 270.828 79.924 271.038 80.512 271.038ZM87.7998 272.13C87.3238 272.13 86.8992 272.036 86.5258 271.85C86.1525 271.663 85.8538 271.411 85.6298 271.094C85.4152 270.776 85.3078 270.417 85.3078 270.016C85.3078 269.512 85.4338 269.115 85.6858 268.826C85.9472 268.536 86.3718 268.326 86.9598 268.196C87.5572 268.065 88.3598 268 89.3678 268H89.8438V267.636C89.8438 267.104 89.7318 266.721 89.5078 266.488C89.2838 266.254 88.9152 266.138 88.4018 266.138C88.1032 266.138 87.7905 266.175 87.4638 266.25C87.1465 266.324 86.8152 266.45 86.4698 266.628C86.2738 266.721 86.1105 266.735 85.9798 266.67C85.8585 266.604 85.7745 266.502 85.7278 266.362C85.6812 266.222 85.6858 266.077 85.7418 265.928C85.7978 265.778 85.9145 265.666 86.0918 265.592C86.5025 265.405 86.9085 265.27 87.3098 265.186C87.7112 265.092 88.0892 265.046 88.4438 265.046C89.3772 265.046 90.0678 265.27 90.5158 265.718C90.9638 266.156 91.1878 266.847 91.1878 267.79V271.388C91.1878 271.864 90.9685 272.102 90.5298 272.102C90.0818 272.102 89.8578 271.864 89.8578 271.388V270.87C89.6898 271.262 89.4285 271.57 89.0738 271.794C88.7192 272.018 88.2945 272.13 87.7998 272.13ZM88.0798 271.122C88.5838 271.122 89.0038 270.944 89.3398 270.59C89.6758 270.235 89.8438 269.787 89.8438 269.246V268.868H89.3818C88.7005 268.868 88.1638 268.9 87.7718 268.966C87.3892 269.031 87.1138 269.143 86.9458 269.302C86.7872 269.451 86.7078 269.661 86.7078 269.932C86.7078 270.286 86.8292 270.576 87.0718 270.8C87.3145 271.014 87.6505 271.122 88.0798 271.122Z" fill="#303030"/>
<circle cx="100.549" cy="307.215" r="3" fill="#FCB500"/>
<path d="M113.595 311.841C112.904 311.841 112.307 311.696 111.803 311.407C111.299 311.118 110.907 310.712 110.627 310.189C110.356 309.657 110.221 309.027 110.221 308.299C110.221 307.571 110.356 306.946 110.627 306.423C110.907 305.891 111.299 305.48 111.803 305.191C112.307 304.902 112.904 304.757 113.595 304.757C114.267 304.757 114.855 304.902 115.359 305.191C115.863 305.48 116.255 305.891 116.535 306.423C116.815 306.946 116.955 307.571 116.955 308.299C116.955 309.027 116.815 309.657 116.535 310.189C116.255 310.712 115.863 311.118 115.359 311.407C114.855 311.696 114.267 311.841 113.595 311.841ZM113.595 310.749C114.173 310.749 114.64 310.539 114.995 310.119C115.349 309.699 115.527 309.092 115.527 308.299C115.527 307.506 115.349 306.904 114.995 306.493C114.64 306.073 114.173 305.863 113.595 305.863C113.007 305.863 112.535 306.073 112.181 306.493C111.826 306.904 111.649 307.506 111.649 308.299C111.649 309.092 111.826 309.699 112.181 310.119C112.535 310.539 113.007 310.749 113.595 310.749ZM119.09 311.771C118.81 311.771 118.586 311.687 118.418 311.519C118.259 311.351 118.18 311.136 118.18 310.875C118.18 310.614 118.259 310.404 118.418 310.245C118.586 310.077 118.81 309.993 119.09 309.993C119.361 309.993 119.575 310.077 119.734 310.245C119.893 310.404 119.972 310.614 119.972 310.875C119.972 311.136 119.893 311.351 119.734 311.519C119.575 311.687 119.361 311.771 119.09 311.771ZM132.054 311.813C131.568 311.813 131.326 311.566 131.326 311.071V307.641H129.884C129.482 307.641 129.151 307.706 128.89 307.837C128.638 307.958 128.414 308.201 128.218 308.565L126.692 311.365C126.57 311.589 126.412 311.729 126.216 311.785C126.029 311.841 125.852 311.827 125.684 311.743C125.525 311.659 125.413 311.528 125.348 311.351C125.282 311.174 125.31 310.968 125.432 310.735L126.608 308.579C126.906 308.028 127.27 307.674 127.7 307.515C126.953 307.366 126.374 307.053 125.964 306.577C125.553 306.101 125.348 305.49 125.348 304.743C125.348 303.828 125.637 303.119 126.216 302.615C126.794 302.102 127.616 301.845 128.68 301.845H131.998C132.511 301.845 132.768 302.106 132.768 302.629V311.071C132.768 311.566 132.53 311.813 132.054 311.813ZM128.918 306.549H131.326V303.007H128.918C127.48 303.007 126.762 303.595 126.762 304.771C126.762 305.956 127.48 306.549 128.918 306.549ZM135.69 311.715C135.214 311.715 134.976 311.477 134.976 311.001V305.611C134.976 305.126 135.214 304.883 135.69 304.883H138.462C139.302 304.883 139.913 305.042 140.296 305.359C140.688 305.667 140.884 306.106 140.884 306.675C140.884 307.03 140.781 307.342 140.576 307.613C140.38 307.874 140.109 308.066 139.764 308.187C140.193 308.29 140.525 308.486 140.758 308.775C140.991 309.064 141.108 309.41 141.108 309.811C141.108 310.399 140.889 310.866 140.45 311.211C140.011 311.547 139.386 311.715 138.574 311.715H135.69ZM136.306 307.781H138.364C138.747 307.781 139.041 307.692 139.246 307.515C139.461 307.338 139.568 307.095 139.568 306.787C139.568 306.47 139.461 306.227 139.246 306.059C139.041 305.891 138.747 305.807 138.364 305.807H136.306V307.781ZM136.306 310.805H138.49C139.367 310.805 139.806 310.45 139.806 309.741C139.806 309.041 139.367 308.691 138.49 308.691H136.306V310.805ZM144.953 311.841C144.477 311.841 144.052 311.748 143.679 311.561C143.306 311.374 143.007 311.122 142.783 310.805C142.568 310.488 142.461 310.128 142.461 309.727C142.461 309.223 142.587 308.826 142.839 308.537C143.1 308.248 143.525 308.038 144.113 307.907C144.71 307.776 145.513 307.711 146.521 307.711H146.997V307.347C146.997 306.815 146.885 306.432 146.661 306.199C146.437 305.966 146.068 305.849 145.555 305.849C145.256 305.849 144.944 305.886 144.617 305.961C144.3 306.036 143.968 306.162 143.623 306.339C143.427 306.432 143.264 306.446 143.133 306.381C143.012 306.316 142.928 306.213 142.881 306.073C142.834 305.933 142.839 305.788 142.895 305.639C142.951 305.49 143.068 305.378 143.245 305.303C143.656 305.116 144.062 304.981 144.463 304.897C144.864 304.804 145.242 304.757 145.597 304.757C146.53 304.757 147.221 304.981 147.669 305.429C148.117 305.868 148.341 306.558 148.341 307.501V311.099C148.341 311.575 148.122 311.813 147.683 311.813C147.235 311.813 147.011 311.575 147.011 311.099V310.581C146.843 310.973 146.582 311.281 146.227 311.505C145.872 311.729 145.448 311.841 144.953 311.841ZM145.233 310.833C145.737 310.833 146.157 310.656 146.493 310.301C146.829 309.946 146.997 309.498 146.997 308.957V308.579H146.535C145.854 308.579 145.317 308.612 144.925 308.677C144.542 308.742 144.267 308.854 144.099 309.013C143.94 309.162 143.861 309.372 143.861 309.643C143.861 309.998 143.982 310.287 144.225 310.511C144.468 310.726 144.804 310.833 145.233 310.833Z" fill="#303030"/>
<circle cx="194.654" cy="315.02" r="3" fill="#FCB500"/>
<path d="M207.7 319.646C207.009 319.646 206.412 319.501 205.908 319.212C205.404 318.923 205.012 318.517 204.732 317.994C204.461 317.462 204.326 316.832 204.326 316.104C204.326 315.376 204.461 314.751 204.732 314.228C205.012 313.696 205.404 313.285 205.908 312.996C206.412 312.707 207.009 312.562 207.7 312.562C208.372 312.562 208.96 312.707 209.464 312.996C209.968 313.285 210.36 313.696 210.64 314.228C210.92 314.751 211.06 315.376 211.06 316.104C211.06 316.832 210.92 317.462 210.64 317.994C210.36 318.517 209.968 318.923 209.464 319.212C208.96 319.501 208.372 319.646 207.7 319.646ZM207.7 318.554C208.278 318.554 208.745 318.344 209.1 317.924C209.454 317.504 209.632 316.897 209.632 316.104C209.632 315.311 209.454 314.709 209.1 314.298C208.745 313.878 208.278 313.668 207.7 313.668C207.112 313.668 206.64 313.878 206.286 314.298C205.931 314.709 205.754 315.311 205.754 316.104C205.754 316.897 205.931 317.504 206.286 317.924C206.64 318.344 207.112 318.554 207.7 318.554ZM213.195 319.576C212.915 319.576 212.691 319.492 212.523 319.324C212.364 319.156 212.285 318.941 212.285 318.68C212.285 318.419 212.364 318.209 212.523 318.05C212.691 317.882 212.915 317.798 213.195 317.798C213.466 317.798 213.68 317.882 213.839 318.05C213.998 318.209 214.077 318.419 214.077 318.68C214.077 318.941 213.998 319.156 213.839 319.324C213.68 319.492 213.466 319.576 213.195 319.576ZM220.461 319.52C219.938 319.52 219.677 319.259 219.677 318.736V310.434C219.677 309.911 219.938 309.65 220.461 309.65H225.823C226.224 309.65 226.425 309.841 226.425 310.224C226.425 310.625 226.224 310.826 225.823 310.826H221.077V313.892H223.961C224.997 313.892 225.804 314.13 226.383 314.606C226.971 315.073 227.265 315.768 227.265 316.692C227.265 317.616 226.971 318.321 226.383 318.806C225.804 319.282 224.997 319.52 223.961 319.52H220.461ZM221.077 318.344H223.793C225.165 318.344 225.851 317.798 225.851 316.706C225.851 315.614 225.165 315.068 223.793 315.068H221.077V318.344ZM231.115 319.646C230.639 319.646 230.214 319.553 229.841 319.366C229.468 319.179 229.169 318.927 228.945 318.61C228.73 318.293 228.623 317.933 228.623 317.532C228.623 317.028 228.749 316.631 229.001 316.342C229.262 316.053 229.687 315.843 230.275 315.712C230.872 315.581 231.675 315.516 232.683 315.516H233.159V315.152C233.159 314.62 233.047 314.237 232.823 314.004C232.599 313.771 232.23 313.654 231.717 313.654C231.418 313.654 231.106 313.691 230.779 313.766C230.462 313.841 230.13 313.967 229.785 314.144C229.589 314.237 229.426 314.251 229.295 314.186C229.174 314.121 229.09 314.018 229.043 313.878C228.996 313.738 229.001 313.593 229.057 313.444C229.113 313.295 229.23 313.183 229.407 313.108C229.818 312.921 230.224 312.786 230.625 312.702C231.026 312.609 231.404 312.562 231.759 312.562C232.692 312.562 233.383 312.786 233.831 313.234C234.279 313.673 234.503 314.363 234.503 315.306V318.904C234.503 319.38 234.284 319.618 233.845 319.618C233.397 319.618 233.173 319.38 233.173 318.904V318.386C233.005 318.778 232.744 319.086 232.389 319.31C232.034 319.534 231.61 319.646 231.115 319.646ZM231.395 318.638C231.899 318.638 232.319 318.461 232.655 318.106C232.991 317.751 233.159 317.303 233.159 316.762V316.384H232.697C232.016 316.384 231.479 316.417 231.087 316.482C230.704 316.547 230.429 316.659 230.261 316.818C230.102 316.967 230.023 317.177 230.023 317.448C230.023 317.803 230.144 318.092 230.387 318.316C230.63 318.531 230.966 318.638 231.395 318.638ZM241.949 319.618C241.482 319.618 241.249 319.38 241.249 318.904V313.822H238.771V314.648C238.771 316.039 238.617 317.117 238.309 317.882C238.001 318.647 237.487 319.198 236.769 319.534C236.573 319.618 236.395 319.627 236.237 319.562C236.078 319.506 235.961 319.408 235.887 319.268C235.812 319.128 235.793 318.979 235.831 318.82C235.877 318.661 235.994 318.526 236.181 318.414C236.685 318.125 237.021 317.691 237.189 317.112C237.366 316.524 237.455 315.689 237.455 314.606V313.486C237.455 312.954 237.721 312.688 238.253 312.688H241.865C242.397 312.688 242.663 312.954 242.663 313.486V318.904C242.663 319.38 242.425 319.618 241.949 319.618ZM245.448 319.618C245.009 319.618 244.79 319.366 244.79 318.862V313.276C244.79 312.819 245.005 312.59 245.434 312.59C245.863 312.59 246.078 312.819 246.078 313.276V317.644L249.508 313.052C249.592 312.931 249.695 312.823 249.816 312.73C249.937 312.637 250.105 312.59 250.32 312.59C250.749 312.59 250.964 312.842 250.964 313.346V318.932C250.964 319.389 250.754 319.618 250.334 319.618C249.895 319.618 249.676 319.389 249.676 318.932V314.578L246.246 319.17C246.162 319.282 246.059 319.385 245.938 319.478C245.817 319.571 245.653 319.618 245.448 319.618Z" fill="#303030"/>
<circle cx="283.288" cy="277.51" r="3" fill="#FCB500"/>
<path d="M296.334 282.136C295.643 282.136 295.046 281.991 294.542 281.702C294.038 281.413 293.646 281.007 293.366 280.484C293.095 279.952 292.96 279.322 292.96 278.594C292.96 277.866 293.095 277.241 293.366 276.718C293.646 276.186 294.038 275.775 294.542 275.486C295.046 275.197 295.643 275.052 296.334 275.052C297.006 275.052 297.594 275.197 298.098 275.486C298.602 275.775 298.994 276.186 299.274 276.718C299.554 277.241 299.694 277.866 299.694 278.594C299.694 279.322 299.554 279.952 299.274 280.484C298.994 281.007 298.602 281.413 298.098 281.702C297.594 281.991 297.006 282.136 296.334 282.136ZM296.334 281.044C296.913 281.044 297.379 280.834 297.734 280.414C298.089 279.994 298.266 279.387 298.266 278.594C298.266 277.801 298.089 277.199 297.734 276.788C297.379 276.368 296.913 276.158 296.334 276.158C295.746 276.158 295.275 276.368 294.92 276.788C294.565 277.199 294.388 277.801 294.388 278.594C294.388 279.387 294.565 279.994 294.92 280.414C295.275 280.834 295.746 281.044 296.334 281.044ZM301.829 282.066C301.549 282.066 301.325 281.982 301.157 281.814C300.999 281.646 300.919 281.431 300.919 281.17C300.919 280.909 300.999 280.699 301.157 280.54C301.325 280.372 301.549 280.288 301.829 280.288C302.1 280.288 302.315 280.372 302.473 280.54C302.632 280.699 302.711 280.909 302.711 281.17C302.711 281.431 302.632 281.646 302.473 281.814C302.315 281.982 302.1 282.066 301.829 282.066ZM312.735 282.136C311.736 282.136 310.882 281.931 310.173 281.52C309.464 281.109 308.918 280.526 308.535 279.77C308.162 279.005 307.975 278.104 307.975 277.068C307.975 276.032 308.162 275.136 308.535 274.38C308.918 273.624 309.464 273.041 310.173 272.63C310.882 272.219 311.736 272.014 312.735 272.014C313.286 272.014 313.813 272.089 314.317 272.238C314.83 272.387 315.274 272.602 315.647 272.882C315.852 273.013 315.969 273.171 315.997 273.358C316.034 273.535 316.006 273.699 315.913 273.848C315.829 273.988 315.703 274.081 315.535 274.128C315.367 274.175 315.18 274.128 314.975 273.988C314.658 273.755 314.312 273.582 313.939 273.47C313.575 273.358 313.188 273.302 312.777 273.302C311.713 273.302 310.901 273.629 310.341 274.282C309.781 274.935 309.501 275.864 309.501 277.068C309.501 278.272 309.781 279.205 310.341 279.868C310.901 280.521 311.713 280.848 312.777 280.848C313.188 280.848 313.58 280.792 313.953 280.68C314.336 280.568 314.695 280.391 315.031 280.148C315.236 280.017 315.418 279.975 315.577 280.022C315.736 280.059 315.857 280.148 315.941 280.288C316.025 280.428 316.053 280.587 316.025 280.764C315.997 280.932 315.899 281.077 315.731 281.198C315.339 281.506 314.882 281.739 314.359 281.898C313.846 282.057 313.304 282.136 312.735 282.136ZM319.08 284.628C318.818 284.628 318.636 284.53 318.534 284.334C318.44 284.147 318.45 283.928 318.562 283.676L319.388 281.828L316.896 276.046C316.784 275.794 316.779 275.57 316.882 275.374C316.994 275.178 317.208 275.08 317.526 275.08C317.694 275.08 317.829 275.122 317.932 275.206C318.044 275.29 318.142 275.435 318.226 275.64L320.144 280.372L322.09 275.64C322.174 275.425 322.272 275.281 322.384 275.206C322.496 275.122 322.65 275.08 322.846 275.08C323.098 275.08 323.27 275.178 323.364 275.374C323.457 275.57 323.452 275.789 323.35 276.032L319.85 284.082C319.756 284.297 319.649 284.441 319.528 284.516C319.416 284.591 319.266 284.628 319.08 284.628ZM329.817 282.108C329.351 282.108 329.117 281.87 329.117 281.394V276.312H326.639V277.138C326.639 278.529 326.485 279.607 326.177 280.372C325.869 281.137 325.356 281.688 324.637 282.024C324.441 282.108 324.264 282.117 324.105 282.052C323.947 281.996 323.83 281.898 323.755 281.758C323.681 281.618 323.662 281.469 323.699 281.31C323.746 281.151 323.863 281.016 324.049 280.904C324.553 280.615 324.889 280.181 325.057 279.602C325.235 279.014 325.323 278.179 325.323 277.096V275.976C325.323 275.444 325.589 275.178 326.121 275.178H329.733C330.265 275.178 330.531 275.444 330.531 275.976V281.394C330.531 281.87 330.293 282.108 329.817 282.108ZM334.857 282.136C334.381 282.136 333.956 282.043 333.583 281.856C333.209 281.669 332.911 281.417 332.687 281.1C332.472 280.783 332.365 280.423 332.365 280.022C332.365 279.518 332.491 279.121 332.743 278.832C333.004 278.543 333.429 278.333 334.017 278.202C334.614 278.071 335.417 278.006 336.425 278.006H336.901V277.642C336.901 277.11 336.789 276.727 336.565 276.494C336.341 276.261 335.972 276.144 335.459 276.144C335.16 276.144 334.847 276.181 334.521 276.256C334.203 276.331 333.872 276.457 333.527 276.634C333.331 276.727 333.167 276.741 333.037 276.676C332.915 276.611 332.831 276.508 332.785 276.368C332.738 276.228 332.743 276.083 332.799 275.934C332.855 275.785 332.971 275.673 333.149 275.598C333.559 275.411 333.965 275.276 334.367 275.192C334.768 275.099 335.146 275.052 335.501 275.052C336.434 275.052 337.125 275.276 337.573 275.724C338.021 276.163 338.245 276.853 338.245 277.796V281.394C338.245 281.87 338.025 282.108 337.587 282.108C337.139 282.108 336.915 281.87 336.915 281.394V280.876C336.747 281.268 336.485 281.576 336.131 281.8C335.776 282.024 335.351 282.136 334.857 282.136ZM335.137 281.128C335.641 281.128 336.061 280.951 336.397 280.596C336.733 280.241 336.901 279.793 336.901 279.252V278.874H336.439C335.757 278.874 335.221 278.907 334.829 278.972C334.446 279.037 334.171 279.149 334.003 279.308C333.844 279.457 333.765 279.667 333.765 279.938C333.765 280.293 333.886 280.582 334.129 280.806C334.371 281.021 334.707 281.128 335.137 281.128ZM341.056 282.01C340.58 282.01 340.342 281.772 340.342 281.296V275.906C340.342 275.421 340.58 275.178 341.056 275.178H343.828C344.668 275.178 345.28 275.337 345.662 275.654C346.054 275.962 346.25 276.401 346.25 276.97C346.25 277.325 346.148 277.637 345.942 277.908C345.746 278.169 345.476 278.361 345.13 278.482C345.56 278.585 345.891 278.781 346.124 279.07C346.358 279.359 346.474 279.705 346.474 280.106C346.474 280.694 346.255 281.161 345.816 281.506C345.378 281.842 344.752 282.01 343.94 282.01H341.056ZM341.672 278.076H343.73C344.113 278.076 344.407 277.987 344.612 277.81C344.827 277.633 344.934 277.39 344.934 277.082C344.934 276.765 344.827 276.522 344.612 276.354C344.407 276.186 344.113 276.102 343.73 276.102H341.672V278.076ZM341.672 281.1H343.856C344.734 281.1 345.172 280.745 345.172 280.036C345.172 279.336 344.734 278.986 343.856 278.986H341.672V281.1ZM351.342 282.136C350.222 282.136 349.34 281.823 348.696 281.198C348.052 280.563 347.73 279.7 347.73 278.608C347.73 277.908 347.87 277.292 348.15 276.76C348.439 276.219 348.836 275.799 349.34 275.5C349.844 275.201 350.422 275.052 351.076 275.052C352.018 275.052 352.76 275.355 353.302 275.962C353.843 276.559 354.114 277.385 354.114 278.44C354.114 278.757 353.927 278.916 353.554 278.916H349.102C349.204 280.335 349.956 281.044 351.356 281.044C351.636 281.044 351.93 281.011 352.238 280.946C352.546 280.871 352.844 280.741 353.134 280.554C353.33 280.442 353.498 280.405 353.638 280.442C353.787 280.47 353.894 280.549 353.96 280.68C354.025 280.801 354.034 280.941 353.988 281.1C353.95 281.249 353.843 281.38 353.666 281.492C353.348 281.707 352.975 281.87 352.546 281.982C352.126 282.085 351.724 282.136 351.342 282.136ZM351.132 276.046C350.544 276.046 350.077 276.228 349.732 276.592C349.386 276.956 349.176 277.441 349.102 278.048H352.924C352.896 277.413 352.728 276.923 352.42 276.578C352.112 276.223 351.682 276.046 351.132 276.046ZM358.816 282.136C358.116 282.136 357.509 281.991 356.996 281.702C356.492 281.403 356.1 280.988 355.82 280.456C355.54 279.915 355.4 279.28 355.4 278.552C355.4 277.469 355.708 276.615 356.324 275.99C356.94 275.365 357.77 275.052 358.816 275.052C359.142 275.052 359.483 275.103 359.838 275.206C360.202 275.299 360.538 275.458 360.846 275.682C360.995 275.775 361.079 275.897 361.098 276.046C361.126 276.186 361.102 276.321 361.028 276.452C360.962 276.573 360.864 276.657 360.734 276.704C360.603 276.741 360.454 276.713 360.286 276.62C360.062 276.461 359.833 276.349 359.6 276.284C359.366 276.209 359.142 276.172 358.928 276.172C358.265 276.172 357.752 276.382 357.388 276.802C357.033 277.213 356.856 277.801 356.856 278.566C356.856 279.331 357.033 279.933 357.388 280.372C357.752 280.801 358.265 281.016 358.928 281.016C359.142 281.016 359.362 280.983 359.586 280.918C359.819 280.853 360.052 280.741 360.286 280.582C360.454 280.489 360.598 280.465 360.72 280.512C360.85 280.559 360.944 280.647 361 280.778C361.065 280.899 361.084 281.035 361.056 281.184C361.037 281.324 360.953 281.441 360.804 281.534C360.505 281.749 360.178 281.903 359.824 281.996C359.478 282.089 359.142 282.136 358.816 282.136ZM363.149 282.108C362.71 282.108 362.491 281.856 362.491 281.352V275.766C362.491 275.309 362.705 275.08 363.135 275.08C363.564 275.08 363.779 275.309 363.779 275.766V280.134L367.209 275.542C367.293 275.421 367.395 275.313 367.517 275.22C367.638 275.127 367.806 275.08 368.021 275.08C368.45 275.08 368.665 275.332 368.665 275.836V281.422C368.665 281.879 368.455 282.108 368.035 282.108C367.596 282.108 367.377 281.879 367.377 281.422V277.068L363.947 281.66C363.863 281.772 363.76 281.875 363.639 281.968C363.517 282.061 363.354 282.108 363.149 282.108Z" fill="#303030"/>
<circle cx="153.895" cy="257.998" r="3" fill="#FCB500"/>
<path d="M166.941 262.624C166.25 262.624 165.653 262.479 165.149 262.19C164.645 261.9 164.253 261.494 163.973 260.972C163.702 260.44 163.567 259.81 163.567 259.082C163.567 258.354 163.702 257.728 163.973 257.206C164.253 256.674 164.645 256.263 165.149 255.974C165.653 255.684 166.25 255.54 166.941 255.54C167.613 255.54 168.201 255.684 168.705 255.974C169.209 256.263 169.601 256.674 169.881 257.206C170.161 257.728 170.301 258.354 170.301 259.082C170.301 259.81 170.161 260.44 169.881 260.972C169.601 261.494 169.209 261.9 168.705 262.19C168.201 262.479 167.613 262.624 166.941 262.624ZM166.941 261.532C167.519 261.532 167.986 261.322 168.341 260.902C168.695 260.482 168.873 259.875 168.873 259.082C168.873 258.288 168.695 257.686 168.341 257.276C167.986 256.856 167.519 256.646 166.941 256.646C166.353 256.646 165.881 256.856 165.527 257.276C165.172 257.686 164.995 258.288 164.995 259.082C164.995 259.875 165.172 260.482 165.527 260.902C165.881 261.322 166.353 261.532 166.941 261.532ZM172.436 262.554C172.156 262.554 171.932 262.47 171.764 262.302C171.605 262.134 171.526 261.919 171.526 261.658C171.526 261.396 171.605 261.186 171.764 261.028C171.932 260.86 172.156 260.776 172.436 260.776C172.707 260.776 172.921 260.86 173.08 261.028C173.239 261.186 173.318 261.396 173.318 261.658C173.318 261.919 173.239 262.134 173.08 262.302C172.921 262.47 172.707 262.554 172.436 262.554ZM179.646 262.596C179.16 262.596 178.918 262.348 178.918 261.854V253.258C178.918 252.772 179.16 252.53 179.646 252.53C180.131 252.53 180.374 252.772 180.374 253.258V256.926H181.956L184.56 252.908C184.69 252.702 184.844 252.581 185.022 252.544C185.208 252.506 185.376 252.534 185.526 252.628C185.684 252.712 185.787 252.838 185.834 253.006C185.89 253.174 185.852 253.36 185.722 253.566L183.328 257.164C183.72 257.313 184.065 257.546 184.364 257.864C184.662 258.172 184.928 258.559 185.162 259.026L186.408 261.588C186.529 261.821 186.548 262.022 186.464 262.19C186.389 262.358 186.263 262.474 186.086 262.54C185.918 262.605 185.74 262.605 185.554 262.54C185.367 262.484 185.222 262.348 185.12 262.134L183.944 259.628C183.692 259.096 183.398 258.718 183.062 258.494C182.726 258.26 182.31 258.144 181.816 258.144H180.374V261.854C180.374 262.348 180.131 262.596 179.646 262.596ZM190.219 262.624C189.743 262.624 189.319 262.53 188.945 262.344C188.572 262.157 188.273 261.905 188.049 261.588C187.835 261.27 187.727 260.911 187.727 260.51C187.727 260.006 187.853 259.609 188.105 259.32C188.367 259.03 188.791 258.82 189.379 258.69C189.977 258.559 190.779 258.494 191.787 258.494H192.263V258.13C192.263 257.598 192.151 257.215 191.927 256.982C191.703 256.748 191.335 256.632 190.821 256.632C190.523 256.632 190.21 256.669 189.883 256.744C189.566 256.818 189.235 256.944 188.889 257.122C188.693 257.215 188.53 257.229 188.399 257.164C188.278 257.098 188.194 256.996 188.147 256.856C188.101 256.716 188.105 256.571 188.161 256.422C188.217 256.272 188.334 256.16 188.511 256.086C188.922 255.899 189.328 255.764 189.729 255.68C190.131 255.586 190.509 255.54 190.863 255.54C191.797 255.54 192.487 255.764 192.935 256.212C193.383 256.65 193.607 257.341 193.607 258.284V261.882C193.607 262.358 193.388 262.596 192.949 262.596C192.501 262.596 192.277 262.358 192.277 261.882V261.364C192.109 261.756 191.848 262.064 191.493 262.288C191.139 262.512 190.714 262.624 190.219 262.624ZM190.499 261.616C191.003 261.616 191.423 261.438 191.759 261.084C192.095 260.729 192.263 260.281 192.263 259.74V259.362H191.801C191.12 259.362 190.583 259.394 190.191 259.46C189.809 259.525 189.533 259.637 189.365 259.796C189.207 259.945 189.127 260.155 189.127 260.426C189.127 260.78 189.249 261.07 189.491 261.294C189.734 261.508 190.07 261.616 190.499 261.616ZM201.053 262.596C200.586 262.596 200.353 262.358 200.353 261.882V256.8H197.875V257.626C197.875 259.016 197.721 260.094 197.413 260.86C197.105 261.625 196.592 262.176 195.873 262.512C195.677 262.596 195.5 262.605 195.341 262.54C195.182 262.484 195.066 262.386 194.991 262.246C194.916 262.106 194.898 261.956 194.935 261.798C194.982 261.639 195.098 261.504 195.285 261.392C195.789 261.102 196.125 260.668 196.293 260.09C196.47 259.502 196.559 258.666 196.559 257.584V256.464C196.559 255.932 196.825 255.666 197.357 255.666H200.969C201.501 255.666 201.767 255.932 201.767 256.464V261.882C201.767 262.358 201.529 262.596 201.053 262.596ZM204.552 262.596C204.114 262.596 203.894 262.344 203.894 261.84V256.254C203.894 255.796 204.109 255.568 204.538 255.568C204.968 255.568 205.182 255.796 205.182 256.254V260.622L208.612 256.03C208.696 255.908 208.799 255.801 208.92 255.708C209.042 255.614 209.21 255.568 209.424 255.568C209.854 255.568 210.068 255.82 210.068 256.324V261.91C210.068 262.367 209.858 262.596 209.438 262.596C209 262.596 208.78 262.367 208.78 261.91V257.556L205.35 262.148C205.266 262.26 205.164 262.362 205.042 262.456C204.921 262.549 204.758 262.596 204.552 262.596ZM212.823 262.596C212.403 262.596 212.193 262.372 212.193 261.924V256.324C212.193 255.82 212.408 255.568 212.837 255.568C213.042 255.568 213.201 255.619 213.313 255.722C213.425 255.824 213.518 255.941 213.593 256.072L215.833 259.992L218.059 256.072C218.143 255.932 218.241 255.815 218.353 255.722C218.465 255.619 218.619 255.568 218.815 255.568C219.244 255.568 219.459 255.82 219.459 256.324V261.924C219.459 262.372 219.249 262.596 218.829 262.596C218.418 262.596 218.213 262.372 218.213 261.924V257.864L216.323 261.14C216.276 261.224 216.216 261.298 216.141 261.364C216.066 261.429 215.964 261.462 215.833 261.462C215.693 261.462 215.586 261.429 215.511 261.364C215.446 261.289 215.39 261.214 215.343 261.14L213.439 257.864V261.924C213.439 262.372 213.234 262.596 212.823 262.596ZM223.784 262.624C223.308 262.624 222.883 262.53 222.51 262.344C222.136 262.157 221.838 261.905 221.614 261.588C221.399 261.27 221.292 260.911 221.292 260.51C221.292 260.006 221.418 259.609 221.67 259.32C221.931 259.03 222.356 258.82 222.944 258.69C223.541 258.559 224.344 258.494 225.352 258.494H225.828V258.13C225.828 257.598 225.716 257.215 225.492 256.982C225.268 256.748 224.899 256.632 224.386 256.632C224.087 256.632 223.774 256.669 223.448 256.744C223.13 256.818 222.799 256.944 222.454 257.122C222.258 257.215 222.094 257.229 221.964 257.164C221.842 257.098 221.758 256.996 221.712 256.856C221.665 256.716 221.67 256.571 221.726 256.422C221.782 256.272 221.898 256.16 222.076 256.086C222.486 255.899 222.892 255.764 223.294 255.68C223.695 255.586 224.073 255.54 224.428 255.54C225.361 255.54 226.052 255.764 226.5 256.212C226.948 256.65 227.172 257.341 227.172 258.284V261.882C227.172 262.358 226.952 262.596 226.514 262.596C226.066 262.596 225.842 262.358 225.842 261.882V261.364C225.674 261.756 225.412 262.064 225.058 262.288C224.703 262.512 224.278 262.624 223.784 262.624ZM224.064 261.616C224.568 261.616 224.988 261.438 225.324 261.084C225.66 260.729 225.828 260.281 225.828 259.74V259.362H225.366C224.684 259.362 224.148 259.394 223.756 259.46C223.373 259.525 223.098 259.637 222.93 259.796C222.771 259.945 222.692 260.155 222.692 260.426C222.692 260.78 222.813 261.07 223.056 261.294C223.298 261.508 223.634 261.616 224.064 261.616ZM229.983 262.596C229.507 262.596 229.269 262.358 229.269 261.882V256.282C229.269 255.806 229.507 255.568 229.983 255.568C230.45 255.568 230.683 255.806 230.683 256.282V258.424H234.085V256.282C234.085 255.806 234.319 255.568 234.785 255.568C235.261 255.568 235.499 255.806 235.499 256.282V261.882C235.499 262.358 235.261 262.596 234.785 262.596C234.319 262.596 234.085 262.358 234.085 261.882V259.544H230.683V261.882C230.683 262.358 230.45 262.596 229.983 262.596ZM239.751 262.596C239.275 262.596 239.037 262.358 239.037 261.882V256.8H237.133C236.722 256.8 236.517 256.608 236.517 256.226C236.517 255.852 236.722 255.666 237.133 255.666H242.355C242.766 255.666 242.971 255.852 242.971 256.226C242.971 256.608 242.766 256.8 242.355 256.8H240.451V261.882C240.451 262.358 240.218 262.596 239.751 262.596ZM246.206 262.624C245.73 262.624 245.305 262.53 244.932 262.344C244.558 262.157 244.26 261.905 244.036 261.588C243.821 261.27 243.714 260.911 243.714 260.51C243.714 260.006 243.84 259.609 244.092 259.32C244.353 259.03 244.778 258.82 245.366 258.69C245.963 258.559 246.766 258.494 247.774 258.494H248.25V258.13C248.25 257.598 248.138 257.215 247.914 256.982C247.69 256.748 247.321 256.632 246.808 256.632C246.509 256.632 246.196 256.669 245.87 256.744C245.552 256.818 245.221 256.944 244.876 257.122C244.68 257.215 244.516 257.229 244.386 257.164C244.264 257.098 244.18 256.996 244.134 256.856C244.087 256.716 244.092 256.571 244.148 256.422C244.204 256.272 244.32 256.16 244.498 256.086C244.908 255.899 245.314 255.764 245.716 255.68C246.117 255.586 246.495 255.54 246.85 255.54C247.783 255.54 248.474 255.764 248.922 256.212C249.37 256.65 249.594 257.341 249.594 258.284V261.882C249.594 262.358 249.374 262.596 248.936 262.596C248.488 262.596 248.264 262.358 248.264 261.882V261.364C248.096 261.756 247.834 262.064 247.48 262.288C247.125 262.512 246.7 262.624 246.206 262.624ZM246.486 261.616C246.99 261.616 247.41 261.438 247.746 261.084C248.082 260.729 248.25 260.281 248.25 259.74V259.362H247.788C247.106 259.362 246.57 259.394 246.178 259.46C245.795 259.525 245.52 259.637 245.352 259.796C245.193 259.945 245.114 260.155 245.114 260.426C245.114 260.78 245.235 261.07 245.478 261.294C245.72 261.508 246.056 261.616 246.486 261.616ZM252.405 262.596C251.929 262.596 251.691 262.358 251.691 261.882V256.282C251.691 255.806 251.929 255.568 252.405 255.568C252.872 255.568 253.105 255.806 253.105 256.282V258.424H256.507V256.282C256.507 255.806 256.741 255.568 257.207 255.568C257.683 255.568 257.921 255.806 257.921 256.282V261.882C257.921 262.358 257.683 262.596 257.207 262.596C256.741 262.596 256.507 262.358 256.507 261.882V259.544H253.105V261.882C253.105 262.358 252.872 262.596 252.405 262.596Z" fill="#303030"/>

</svg>
