<svg width="380" height="320" fill="currentColor" xmlns="http://www.w3.org/2000/svg"><path d="m293.012 5.718-.001.006c-.236 3.925-.802 6.07-2.247 8.22l-.002.002c-1.327 1.943-3.092 3.28-8.978 6.917-5.297 3.275-7.747 5.428-8.787 7.56v.002c-.347.707-.509 1.112-.584 1.572-.078.474-.068 1.033-.009 2.06.057.907.135 1.55.296 2.177.16.627.408 1.258.825 2.134 2.054 4.275 4.582 7.078 12.671 13.787l.002.002c2.807 2.351 4.75 4.056 6.074 5.367 1.317 1.304 2.064 2.26 2.425 3.113l.003.005.014.036c.169.41.352.857.299 1.363-.056.53-.355 1.038-.889 1.65-1.063 1.215-3.341 3.146-7.778 6.895a95.815 95.815 0 0 0-5.949 5.518c-1.837 1.853-3.328 3.518-4.017 4.515a20.42 20.42 0 0 0-1.867 3.391c-.231.542-.408 1.04-.52 1.46-.115.432-.149.737-.13.914.022.2.042.331.067.422a.324.324 0 0 0 .038.1c.01.008.079.049.392.087.311.035.826-.065 1.586-.392.744-.321 1.664-.833 2.757-1.542 2.185-1.418 5.016-3.592 8.459-6.506 3.987-3.373 11.218-10.421 14.533-14.197l.003-.003c1.921-2.155 3.443-3.497 5.721-4.419 2.246-.908 5.199-1.395 9.942-1.934h.001c1.962-.218 3.402-.477 4.45-.8 1.051-.322 1.657-.694 2.007-1.102l.008-.01c.099-.109.346-.464.682-.986.325-.505.709-1.128 1.072-1.737l.001-.002c.33-.55.574-.958.747-1.268.103-.185.174-.322.22-.423-.279-.066-1.174-.258-2.324-.505-.673-.144-1.433-.306-2.207-.474h-.003c-4.77-1.053-9.025-2.137-12.144-3.136-1.736-.549-2.942-.818-4.252-.856-1.319-.039-2.772.156-5.003.578-2.309.45-3.682.693-4.584.728-.46.018-.833-.017-1.163-.122a2.452 2.452 0 0 1-.832-.476c-.357-.29-.575-.716-.701-1.182-.128-.471-.175-1.024-.162-1.624.026-1.2.296-2.663.74-4.195.886-3.059 2.498-6.499 4.41-8.8 1.565-1.894 2.434-2.6 7.368-6.216 2.302-1.688 3.6-2.961 4.233-4.29.62-1.3.636-2.731.164-4.832-1.367-6.117-5.81-11.199-11.482-13.125h-.001c-2.011-.689-3.357-.759-4.299-.39-.297.124-.584.416-.819 1.199-.237.792-.389 1.988-.476 3.764Zm-19.045 79.188h.001-.001ZM328.045 77.116l-.002.005c-.598 2.247-.545 3.574.057 4.856l.002.004c.53 1.154 1.214 1.895 2.22 2.365 1.033.483 2.45.701 4.487.701 4.375 0 7.378-1.006 9.351-2.977.681-.68 1.125-1.317 1.4-2.03.277-.718.397-1.547.383-2.632-.055-4.077-3.506-8.062-8.307-9.303l-.005-.002c-1.228-.332-2.07-.46-2.724-.418-.626.04-1.103.238-1.602.622-.923.733-2.047 2.167-3.047 3.834-.997 1.66-1.835 3.49-2.213 4.975ZM307.453 80.836l-.028-.004-.075.016c-.091.019-.215.04-.359.065-.291.048-.683.108-1.111.166a7.666 7.666 0 0 0-1.207.278c-.39.122-.689.252-.838.346-.297.2-.695.62-1.153 1.243a20.503 20.503 0 0 0-1.397 2.232c-.933 1.702-1.784 3.685-2.209 5.313-.498 1.933-.533 3.56-.189 4.786.34 1.21 1.046 2.028 2.074 2.416h.001c.244.093.786.2 1.609.309.805.105 1.83.206 3.005.298 2.349.184 5.278.336 8.204.434 2.925.098 5.841.144 8.16.117a57.748 57.748 0 0 0 2.949-.095c.804-.052 1.308-.122 1.514-.192.49-.172.773-.383.898-.551a.348.348 0 0 0 .078-.177.24.24 0 0 0-.043-.148l-.004-.007c-.415-.718-1.885-2.648-3.545-4.706-1.65-2.046-3.444-4.163-4.48-5.242l-.002-.001c-3.913-4.112-6.922-6.012-10.251-6.627a63.035 63.035 0 0 0-1.601-.269ZM42.737 97.339c-.593.43-1.42 1.314-1.79 1.949-1.303 2.256-1.779 5.731-1.484 9.033.146 1.642.482 3.217.984 4.548.505 1.337 1.164 2.391 1.935 3.038.214.176.742.514 1.452.933.697.411 1.537.881 2.35 1.316 2.783 1.442 4.891 3.092 6.61 5.356 1.715 2.256 3.022 5.097 4.244 8.89v.001c5.134 16.054 8.658 24.2 17.295 39.91 2.421 4.353 5.599 7.271 17.771 15.952l.859.611c4.52 3.218 6.816 4.852 8.143 5.707.704.454 1.108.67 1.409.788.285.111.491.14.844.191l.013.001.006.001c1.727.268 3.528-.313 4.906-1.392 1.38-1.08 2.279-2.611 2.293-4.189 0-.347-.022-.62-.106-.925-.086-.311-.242-.678-.538-1.198-.597-1.051-1.711-2.639-3.792-5.524l-.001-.001c-6.203-8.651-7.63-11.32-8.706-16.362v-.001c-1.415-6.722-4.83-14.285-10.692-23.663v-.001c-3.57-5.741-5.971-8.661-12.269-15.097-4.27-4.353-6.748-7.15-8.497-9.607-3.037-4.247-8.5-9.969-15.564-16.267-1.537-1.367-2.687-2.388-3.585-3.13-.904-.75-1.519-1.187-1.986-1.414-.443-.215-.71-.22-.957-.146-.297.09-.616.306-1.147.692ZM335.672 104.744l-.002.003c-1.661 2.115-3.449 4.158-5.019 5.767a34.355 34.355 0 0 1-2.16 2.052c-.631.539-1.2.957-1.651 1.17-1.013.489-1.967.687-3.161.518-1.163-.164-2.534-.673-4.396-1.537-2.553-1.166-4.244-1.796-5.763-2.025-1.5-.227-2.866-.068-4.778.42-2.735.698-5.602 2.127-8.015 3.873-2.421 1.753-4.334 3.788-5.219 5.666l-.002.004c-.396.82-.572 1.292-.615 1.66-.04.33.024.611.237 1.063l.002.006c.154.336.364.601.715.83.365.238.901.448 1.726.63 1.657.365 4.325.583 8.732.788h.001c7.241.35 10.197.788 12.751 1.942l.005.002c1.094.509 1.916 1.004 2.651 1.714.73.706 1.349 1.6 2.074 2.87 1.598 2.783 2.609 4.382 3.486 5.342.431.471.818.775 1.214.985.397.211.825.341 1.356.437.228.041.629.054 1.175.032a25.165 25.165 0 0 0 1.87-.16c1.387-.166 2.95-.44 4.224-.769l.003-.001c3.231-.817 6.609-3.031 9.39-5.92 2.78-2.888 4.915-6.402 5.708-9.767.37-1.618.421-2.802.072-4.023-.353-1.24-1.133-2.567-2.529-4.441l-.001-.001c-1.037-1.406-3.921-4.377-6.677-7.016a99.007 99.007 0 0 0-3.732-3.421 23.19 23.19 0 0 0-1.282-1.041 5.646 5.646 0 0 0-.289-.2c-.128.138-.302.335-.511.581a57.365 57.365 0 0 0-1.59 1.967ZM227.119 152.324h.002c2.909-.16 4.917-.337 6.333-.595 1.41-.257 2.305-.607 2.922-1.17.285-.261.525-.546.677-.896.153-.355.199-.737.155-1.166-.083-.819-.502-1.887-1.213-3.422-1.064-2.329-1.44-4.063-1.167-5.62.274-1.555 1.212-3.027 2.995-4.793 2.157-2.126 4.238-3.573 6.415-4.477 1.409-.571 2.781-.724 3.769-.554.495.086.86.246 1.091.441a.839.839 0 0 1 .325.673c0 .165.056.736.134 1.469.081.754.191 1.726.308 2.734v.001c.732 6.203 2.088 10.429 4.247 12.802 1.224 1.361 2.513 2.181 4.156 2.437 1.616.251 3.517-.054 5.95-.805.764-.23 1.502-.423 2.074-.548.288-.062.525-.105.7-.128.077-.01.135-.015.175-.016.032.028.071.096.079.266.013.256-.061.63-.241 1.08-.358.894-1.069 1.924-1.934 2.626l-.005.004c-.672.559-2.924 2.09-5.031 3.405l-.002.002c-3.615 2.286-5.828 3.837-7.129 5.235-.66.709-1.099 1.393-1.368 2.126-.269.732-.359 1.485-.359 2.317v.007c.031 2.341.78 4.089 4.129 9.935 3.347 5.838 5.304 9.876 6.151 13.066.838 3.154.588 5.466-.502 7.881-1.437 3.181-3.216 5.127-11.326 12l-.004.003c-1.95 1.686-4.207 3.787-4.943 4.706-1.717 2.106-3.558 5.851-4.334 8.86v.001l.484.125c-.818 3.124-1.023 10.19-.467 15.62l-13.246-85.632Zm0 0c-5.699.291-8.211.868-11.007 2.419m11.007-2.419-19.492 12.178m-28.004 21.484c-.293.785-.554 1.42-.81 1.92-.254.496-.522.894-.846 1.176-.708.615-1.525.548-2.471.308-.404-.101-1.14-.407-1.969-.79a52.026 52.026 0 0 1-2.762-1.385c-2.91-1.534-4.722-2.46-5.99-3.025-1.26-.561-1.954-.752-2.63-.832-1.185-.134-1.896.114-2.394.744-.546.691-.911 1.926-1.115 3.976-.574 5.992 1.326 16.097 5.088 26.497 2.637 7.323 5.902 12.543 10.991 17.626 4.379 4.374 10.401 8.531 14.849 10.222l.003.002c1.029.399 1.629.596 2.824.739 1.226.147 3.058.234 6.547.395 7.881.351 9.081.47 15.137 1.792 5.429 1.16 9.655 1.564 14.9 1.361h.001c5.786-.204 8.72-1.084 10.293-2.733l-60.114-58.169m.468.176h.001l-.469-.176m.468.176v.001l-.468-.177m.468.176c1.393-3.681 2.741-6.127 4.32-7.902m-4.788 7.726c1.403-3.708 2.777-6.219 4.414-8.058m.374.332-.001.001-.373-.333m.374.332c.692-.774 1.653-1.547 2.669-2.173 1.02-.628 2.061-1.087 2.904-1.261h.003c1.471-.312 4.04-1.041 6.429-1.786 2.374-.741 4.638-1.519 5.471-1.935l.001-.001c1.551-.781 2.605-1.432 3.526-2.387.913-.947 1.671-2.168 2.681-4.039m-23.684 13.582-.374-.332m0 0 24.058-13.25m0 0-.001.001-.438-.24.44.237-.001.002Zm0 0c3.048-5.567 5.037-7.839 8.485-9.759m0 0v.001l-.243-.437.243.436Zm51.098-6.052c.004 0 .004 0-.002-.001l.002.001ZM7.948 145.976c.612-.271 1.545-.41 2.743-.393 1.186.016 2.587.183 4.104.488 3.035.608 6.493 1.755 9.566 3.282l.004.002c3.201 1.556 4.485 2.408 8 5.252 1.417 1.15 5.99 4.516 10.167 7.493 10.856 7.783 13.963 10.336 22.301 18.577 10.197 10.096 12.792 12.188 26.23 21.457v.001c4.04 2.777 8.198 5.77 9.258 6.657l.006.005c1.057.857 5.129 4.748 9.024 8.609 4.264 4.259 6.594 6.538 8.462 7.774 1.93 1.276 3.385 1.449 5.803 1.597M7.948 145.976l115.698 80.301M7.948 145.976c-.69.303-1.097.619-1.318.946-.21.31-.289.685-.203 1.2v.002c.123.749.516 1.659 1.25 2.768.733 1.105 1.788 2.38 3.204 3.857 2.83 2.954 7.064 6.676 12.934 11.402 7.622 6.148 19.455 17.587 24.858 24.039M7.948 145.976l15.554 20.564c7.6 6.132 19.409 17.548 24.787 23.971m75.327 36.266.03-.5m-.03.5-.001-.001.031-.499m-.03.5c1.654.103 2.535.189 3.157.392.575.187.943.48 1.536 1.114l.003.003c1.011 1.063 1.557 2.511 1.557 4.21 0 2.181-.626 4.009-2.274 6.308l-.003.004c-4.085 5.838-5.846 12.637-6.608 25.367-.205 3.46-.365 5.374-.656 6.588-.142.595-.311.998-.519 1.321-.208.324-.471.593-.84.906m4.677-46.713c3.274.205 3.8.351 5.028 1.665 1.111 1.168 1.695 2.744 1.695 4.554 0 2.307-.672 4.234-2.367 6.599-4.005 5.723-5.759 12.409-6.519 25.109-.409 6.891-.643 7.854-2.192 9.168m-.322-.382.001-.001.321.383m-.322-.382-.001.001.323.381m-.322-.382c-.337.282-.597.439-.873.533-.28.095-.611.137-1.112.138m2.307-.289c-.731.613-1.257.789-2.309.789m0 0 .005-.5h-.003m-.002.5c-2.777-.03-4.882-1.606-7.513-5.723l-31.51-25.255c-4.122-3.271-12.745-15.767-17.422-25.227-3.098-6.248-3.858-8.496-4.414-13.109-.526-4.175-2.718-8.234-7.834-14.336m68.693 83.65v-.5h.002m0 0c-2.513-.028-4.488-1.416-7.093-5.492l-.003-.004c-.884-1.354-2.187-3.102-2.886-3.861l-.001-.002c-2.997-3.23-10.324-8.837-20.781-15.956l-.001-.001c-3.633-2.458-7.207-4.955-7.946-5.552l-.004-.002c-1.995-1.583-5.144-5.466-8.401-10.185-3.246-4.7-6.557-10.168-8.883-14.871v-.001c-3.085-6.22-3.82-8.411-4.365-12.947v-.003c-.545-4.322-2.815-8.472-7.947-14.594m0 0-.384.321m.384-.321-.384.321M371.555 183.712l-.003.002c-2.643 2.598-5.155 6.609-7.024 10.902-1.87 4.292-3.073 8.808-3.145 12.399-.028 2.926.493 4.491 1.729 5.572l.006.006c1.05.947 2.184 1.297 3.355 1.159 1.19-.14 2.475-.792 3.777-1.96 2.609-2.338 5.167-6.632 7.024-12.383v-.001c1.478-4.574 2.051-7.821 2.051-11.817v-.003c.014-1.913-.103-3.339-.358-4.373-.256-1.035-.634-1.615-1.09-1.926l-.009-.006c-.281-.2-.832-.337-1.529-.327-.675.01-1.395.158-1.961.425-.231.124-.668.436-1.198.868-.526.429-1.112.95-1.625 1.463ZM331.289 190.766l-.017.004-.017.002c-.402.058-4.34.699-8.758 1.429-4.41.73-10.658 1.867-13.864 2.537-2.727.568-4.278.88-5.645 1.04-1.377.161-2.56.167-4.548.138-2.893-.029-6.19-.324-10.092-.91l-5.52-.78-.726.82h-.001c-2.61 2.968-2.376 6.658.23 8.455h.001c2.5 1.729 5.406 2.132 11.966 1.433 1.95-.229 6.856-.763 11.979-1.319l4.246-.462c6.427-.701 13.014-1.373 14.633-1.491h.005a20.568 20.568 0 0 0 2.378-.271c.662-.121 1.129-.264 1.398-.404l.007-.004c.611-.305 1.333-.898 2.081-1.691a20.424 20.424 0 0 0 2.139-2.732c.656-.993 1.217-2.013 1.602-2.931.391-.933.573-1.699.538-2.206v-.001l-.053-.71-1.443-.022h-.006a25.93 25.93 0 0 0-1.528 0c-.479.014-.83.043-.985.076ZM271.755 223.876c-.483 2.955-.861 4.855-1.546 6.934-.682 2.071-1.666 4.308-3.346 7.94v.001c-1.193 2.572-1.673 4.356-1.531 5.734.137 1.326.863 2.365 2.356 3.425.53.358.855.538 1.205.639.355.102.775.134 1.511.119h.004c1.118-.013 2.382-.371 4.15-1.304 1.771-.934 4.012-2.427 7.077-4.672l.001-.001c2.672-1.954 4.408-3.173 5.693-3.932 1.297-.766 2.165-1.082 3.098-1.21.697-.096 1.344.039 1.914.418.56.372 1.012.954 1.38 1.699.73 1.478 1.189 3.725 1.424 6.689v.003c.16 2.193.376 3.671.796 4.978.418 1.302 1.047 2.463 2.073 4.007 1.784 2.65 3.921 4.604 6.644 5.989 2.73 1.388 6.075 2.217 10.288 2.579h.001c.257.023.475.046.664.066.332.035.572.06.771.058a.681.681 0 0 0 .2-.022.946.946 0 0 0 .044-.309 6.486 6.486 0 0 0-.038-.743c-.041-.431-.11-.971-.198-1.658-.043-.338-.091-.711-.142-1.125-1.048-8.435-3.401-15.569-6.359-19.405l-.004-.005c-1.463-1.94-2.628-2.893-6.261-5.1l-.003-.001c-2.713-1.67-4.841-3.145-6.373-4.43-1.511-1.268-2.512-2.407-2.868-3.419-.216-.597.098-1.204.556-1.661.148-.148.311-.296.522-.409a2.01 2.01 0 0 1 .735-.212c.534-.061 1.34-.019 2.693.067 8.297.498 9.486.52 11.346.21a13.85 13.85 0 0 0 3.695-1.193c1.13-.552 2.007-1.189 2.449-1.77l.003-.003c.335-.432.494-.708.586-1.033.096-.343.127-.777.127-1.551 0-.987-.121-1.637-.399-2.165-.278-.527-.742-.99-1.545-1.539-.541-.368-1.42-.693-2.611-.944-1.18-.248-2.627-.416-4.272-.495-3.289-.159-7.335.036-11.562.616-6.658.938-9.967.863-13.47-.313h-.001c-2.005-.677-4.972-1.899-6.221-2.557-.05.017-.114.04-.193.071-.236.092-.55.231-.897.39-1.247.625-2.255 1.896-2.868 3.762-.106.331-.305 1.246-.544 2.494a158.522 158.522 0 0 0-.754 4.293ZM127.239 269.491l.005-.002c1.29-.489 3.059-.269 4.537.606l.009.005c1.22.689 2.36 2.041 4.323 5.143.497.804.872 1.346 1.348 1.78.479.437 1.034.74 1.844 1.123l.007.003c.996.452 1.597.703 3.197.934 1.562.225 4.11.438 9.012.831 2.104.176 4.611.494 5.619.746l.006.002c1.239.295 2.789.893 4.193 1.579 1.416.693 2.617 1.444 3.198 2.025l.01.01 1.082 1.022.381.36.342-.398.521-.607c.379-.415.974-.841 2.019-1.371 1.047-.532 2.511-1.153 4.599-1.969v-.001l3.775-1.463 7.919 1.749-57.946-12.107Zm0 0c-2.037.751-3.755 2.453-4.81 4.518-1.055 2.065-1.417 4.436-.817 6.493.465 1.584 1.683 3.397 3.276 4.995 1.59 1.595 3.503 2.926 5.302 3.581 2.379.868 5.945 1.498 9.789 1.807 3.837.308 7.909.293 11.289-.111l-24.029-21.283Zm24.029 21.283c3.277-.393 6.032-.864 8.205-1.402 2.186-.54 3.736-1.136 4.638-1.755l.008-.005c.319-.21.573-.377.77-.496.177-.106.374-.217.558-.255a.65.65 0 0 1 .433.051c.176.09.26.24.299.347.037.1.048.201.053.272.006.073.006.153.007.228 0 .004.006.033.035.093.036.079.097.183.189.312.184.259.461.581.821.952.719.74 1.728 1.635 2.871 2.557 2.294 1.847 5.072 3.754 7.052 4.693l.002.001c1.915.92 3.468 1.471 5.312 1.771 1.854.302 4.021.355 7.171.253 5.567-.177 9.196.12 17.775 1.407 3.131.465 5.634.703 7.516.724.942.011 1.717-.033 2.332-.125.622-.093 1.046-.232 1.309-.389h.002c.295-.175.471-.327.556-.435a.663.663 0 0 0 .029-.038.984.984 0 0 1-.024-.557.693.693 0 0 1 .354-.44l.002-.008c.037-.147.065-.38.065-.661 0-.714-.278-1.599-.825-2.594-.544-.987-1.332-2.047-2.302-3.1-1.942-2.108-4.575-4.15-7.322-5.508l-.002-.001c-1.627-.812-2.589-1.064-5.247-1.411-4.061-.499-8.234-1.322-18.724-3.657l-33.918 9.176Zm67.961 8.727-.003.007.003-.007ZM337.206 292.936a2.61 2.61 0 0 1 .202-.038c.128-.019.294-.037.486-.053.385-.032.861-.053 1.329-.053h.006c3.663-.042 7.595 1.768 10.317 4.181 1.358 1.203 2.386 2.532 2.93 3.816.542 1.28.589 2.473.071 3.478l-15.341-11.331Zm0 0-.011.004m.011-.004-.011.004m0 0c-.975.338-1.691.689-2.398 1.225-.715.542-1.439 1.289-2.411 2.448m4.809-3.673-4.809 3.673m0 0-.002.003m.002-.003-.002.003m0 0c-1.175 1.379-3.781 4.303-5.798 6.523l-.003.003m5.801-6.526-5.801 6.526m0 0c-2.012 2.185-4.191 4.681-4.855 5.516-1.638 2.14-2.638 4.116-3.004 5.802-.364 1.679-.096 3.031.741 4.02m7.118-15.338-7.118 15.338m0 0 .002.002m-.002-.002.002.002m0 0c.726.868 1.889 1.206 3.741.817m-3.741-.817 3.741.817m0 0c1.863-.391 4.311-1.501 7.425-3.376m-7.425 3.376 7.425-3.376m0 0c1.509-.928 3.803-2.465 5.074-3.417 1.034-.786 1.721-1.275 2.441-1.621.726-.349 1.463-.541 2.578-.775 3.368-.74 6.027-1.605 8-2.593 1.978-.992 3.217-2.083 3.821-3.25l-21.914 11.656ZM273.768 305.843l-.007.003-.007.002c-.969.314-1.929.871-2.714 1.534-.791.668-1.368 1.412-1.62 2.079-.145.386-.289 1.368-.289 2.218 0 1.04.285 1.952.857 2.753.576.807 1.461 1.526 2.695 2.143l.004.002c2.672 1.362 5.277 1.448 7.186.625 1.889-.816 3.152-2.541 3.166-4.97-.001-1.975-.634-3.539-1.754-4.634-1.123-1.099-2.786-1.774-4.931-1.872h-.003a15.842 15.842 0 0 0-1.6-.004c-.511.026-.857.076-.983.121Z" fill="#fff" stroke="#303030"/><circle cx="12.1" cy="267.504" r="3" fill="#FCB500"/><path d="M25.146 272.13c-.69 0-1.288-.145-1.792-.434a3.025 3.025 0 0 1-1.176-1.218c-.27-.532-.406-1.162-.406-1.89s.136-1.354.406-1.876c.28-.532.672-.943 1.176-1.232.504-.29 1.102-.434 1.792-.434.672 0 1.26.144 1.764.434.504.289.896.7 1.176 1.232.28.522.42 1.148.42 1.876s-.14 1.358-.42 1.89c-.28.522-.672.928-1.176 1.218-.504.289-1.092.434-1.764.434Zm0-1.092c.579 0 1.046-.21 1.4-.63.355-.42.532-1.027.532-1.82 0-.794-.177-1.396-.532-1.806-.354-.42-.821-.63-1.4-.63-.588 0-1.059.21-1.414.63-.354.41-.532 1.012-.532 1.806 0 .793.178 1.4.532 1.82.355.42.826.63 1.414.63Zm5.496 1.022c-.28 0-.504-.084-.672-.252a.9.9 0 0 1-.238-.644c0-.262.079-.472.238-.63.168-.168.392-.252.672-.252.27 0 .485.084.644.252.158.158.238.368.238.63 0 .261-.08.476-.238.644-.159.168-.374.252-.644.252Zm10.905.07c-.998 0-1.852-.206-2.562-.616a4.127 4.127 0 0 1-1.638-1.75c-.373-.766-.56-1.666-.56-2.702s.187-1.932.56-2.688a4.122 4.122 0 0 1 1.638-1.75c.71-.411 1.564-.616 2.562-.616.551 0 1.078.074 1.582.224.514.149.957.364 1.33.644.206.13.322.289.35.476.038.177.01.34-.084.49a.615.615 0 0 1-.378.28c-.168.046-.354 0-.56-.14a3.357 3.357 0 0 0-1.036-.518 3.93 3.93 0 0 0-1.162-.168c-1.064 0-1.876.326-2.436.98-.56.653-.84 1.582-.84 2.786s.28 2.137.84 2.8c.56.653 1.372.98 2.436.98.411 0 .803-.056 1.176-.168.383-.112.742-.29 1.078-.532.206-.131.388-.173.546-.126.159.037.28.126.364.266.084.14.112.298.084.476-.028.168-.126.312-.294.434a4.15 4.15 0 0 1-1.372.7 5.49 5.49 0 0 1-1.624.238Zm6.345 2.492c-.262 0-.444-.098-.546-.294-.093-.187-.084-.406.028-.658l.826-1.848-2.492-5.782c-.112-.252-.117-.476-.014-.672.112-.196.326-.294.644-.294.168 0 .303.042.406.126.112.084.21.228.294.434l1.918 4.732 1.946-4.732c.084-.215.182-.36.294-.434.112-.084.266-.126.462-.126.252 0 .425.098.518.294.093.196.088.415-.014.658l-3.5 8.05c-.093.214-.2.359-.322.434a.802.802 0 0 1-.448.112Zm6.443-2.52c-.42 0-.63-.224-.63-.672v-5.6c0-.504.215-.756.644-.756.206 0 .364.051.476.154.112.102.206.219.28.35l2.24 3.92 2.226-3.92c.084-.14.182-.257.294-.35.112-.103.266-.154.462-.154.43 0 .644.252.644.756v5.6c0 .448-.21.672-.63.672-.41 0-.616-.224-.616-.672v-4.06l-1.89 3.276a.847.847 0 0 1-.182.224.454.454 0 0 1-.308.098.476.476 0 0 1-.322-.098 1.81 1.81 0 0 1-.168-.224l-1.904-3.276v4.06c0 .448-.205.672-.616.672Zm10.96.028c-.475 0-.9-.094-1.273-.28a2.377 2.377 0 0 1-.896-.756 1.882 1.882 0 0 1-.322-1.078c0-.504.126-.901.378-1.19.261-.29.686-.5 1.274-.63.597-.131 1.4-.196 2.408-.196h.476v-.364c0-.532-.112-.915-.336-1.148-.224-.234-.593-.35-1.106-.35-.299 0-.611.037-.938.112a4.33 4.33 0 0 0-.994.378c-.196.093-.36.107-.49.042a.524.524 0 0 1-.252-.308.634.634 0 0 1 .014-.434.59.59 0 0 1 .35-.336c.41-.187.817-.322 1.218-.406a4.98 4.98 0 0 1 1.134-.14c.933 0 1.624.224 2.072.672.448.438.672 1.129.672 2.072v3.598c0 .476-.22.714-.658.714-.448 0-.672-.238-.672-.714v-.518c-.168.392-.43.7-.784.924-.355.224-.78.336-1.274.336Zm.28-1.008c.505 0 .925-.178 1.26-.532.337-.355.505-.803.505-1.344v-.378h-.462c-.681 0-1.218.032-1.61.098-.383.065-.658.177-.826.336-.159.149-.238.359-.238.63 0 .354.121.644.364.868.243.214.579.322 1.008.322Zm7.349.98c-.477 0-.715-.238-.715-.714v-5.082h-1.904c-.41 0-.616-.192-.616-.574 0-.374.206-.56.617-.56h5.222c.41 0 .615.186.615.56 0 .382-.205.574-.615.574h-1.904v5.082c0 .476-.234.714-.7.714Zm4.97 2.52c-.467 0-.7-.238-.7-.714v-8.12c0-.476.229-.714.686-.714.467 0 .7.238.7.714v.532c.205-.392.509-.7.91-.924.401-.234.859-.35 1.372-.35.607 0 1.134.144 1.582.434.457.289.807.7 1.05 1.232.252.522.378 1.148.378 1.876s-.126 1.358-.378 1.89a2.786 2.786 0 0 1-1.05 1.232c-.448.28-.975.42-1.582.42-.504 0-.957-.108-1.358-.322a2.275 2.275 0 0 1-.896-.91v3.01c0 .476-.238.714-.714.714Zm2.618-3.584c.588 0 1.055-.21 1.4-.63.355-.42.532-1.027.532-1.82 0-.794-.177-1.396-.532-1.806-.345-.42-.812-.63-1.4-.63-.588 0-1.06.21-1.414.63-.345.41-.518 1.012-.518 1.806 0 .793.173 1.4.518 1.82.355.42.826.63 1.414.63Zm7.288 1.092c-.476 0-.9-.094-1.274-.28a2.377 2.377 0 0 1-.896-.756 1.882 1.882 0 0 1-.322-1.078c0-.504.126-.901.378-1.19.261-.29.686-.5 1.274-.63.597-.131 1.4-.196 2.408-.196h.476v-.364c0-.532-.112-.915-.336-1.148-.224-.234-.593-.35-1.106-.35-.299 0-.612.037-.938.112a4.33 4.33 0 0 0-.994.378c-.196.093-.36.107-.49.042a.524.524 0 0 1-.252-.308.634.634 0 0 1 .014-.434.59.59 0 0 1 .35-.336c.41-.187.817-.322 1.218-.406a4.98 4.98 0 0 1 1.134-.14c.933 0 1.624.224 2.072.672.448.438.672 1.129.672 2.072v3.598c0 .476-.22.714-.658.714-.448 0-.672-.238-.672-.714v-.518c-.168.392-.43.7-.784.924-.355.224-.78.336-1.274.336Zm.28-1.008c.504 0 .924-.178 1.26-.532.336-.355.504-.803.504-1.344v-.378h-.462c-.681 0-1.218.032-1.61.098-.383.065-.658.177-.826.336-.159.149-.238.359-.238.63 0 .354.121.644.364.868.242.214.578.322 1.008.322Z" fill="#303030"/><circle cx="100.549" cy="307.215" r="3" fill="#FCB500"/><path d="M113.595 311.841c-.691 0-1.288-.145-1.792-.434a3.013 3.013 0 0 1-1.176-1.218c-.271-.532-.406-1.162-.406-1.89s.135-1.353.406-1.876c.28-.532.672-.943 1.176-1.232.504-.289 1.101-.434 1.792-.434.672 0 1.26.145 1.764.434.504.289.896.7 1.176 1.232.28.523.42 1.148.42 1.876s-.14 1.358-.42 1.89c-.28.523-.672.929-1.176 1.218-.504.289-1.092.434-1.764.434Zm0-1.092c.578 0 1.045-.21 1.4-.63.354-.42.532-1.027.532-1.82 0-.793-.178-1.395-.532-1.806-.355-.42-.822-.63-1.4-.63-.588 0-1.06.21-1.414.63-.355.411-.532 1.013-.532 1.806 0 .793.177 1.4.532 1.82.354.42.826.63 1.414.63Zm5.495 1.022c-.28 0-.504-.084-.672-.252a.9.9 0 0 1-.238-.644c0-.261.079-.471.238-.63.168-.168.392-.252.672-.252.271 0 .485.084.644.252.159.159.238.369.238.63a.9.9 0 0 1-.238.644c-.159.168-.373.252-.644.252Zm12.964.042c-.486 0-.728-.247-.728-.742v-3.43h-1.442c-.402 0-.733.065-.994.196-.252.121-.476.364-.672.728l-1.526 2.8c-.122.224-.28.364-.476.42a.7.7 0 0 1-.532-.042.698.698 0 0 1-.336-.392c-.066-.177-.038-.383.084-.616l1.176-2.156c.298-.551.662-.905 1.092-1.064-.747-.149-1.326-.462-1.736-.938-.411-.476-.616-1.087-.616-1.834 0-.915.289-1.624.868-2.128.578-.513 1.4-.77 2.464-.77h3.318c.513 0 .77.261.77.784v8.442c0 .495-.238.742-.714.742Zm-3.136-5.264h2.408v-3.542h-2.408c-1.438 0-2.156.588-2.156 1.764 0 1.185.718 1.778 2.156 1.778Zm6.772 5.166c-.476 0-.714-.238-.714-.714v-5.39c0-.485.238-.728.714-.728h2.772c.84 0 1.451.159 1.834.476.392.308.588.747.588 1.316 0 .355-.103.667-.308.938a1.681 1.681 0 0 1-.812.574c.429.103.761.299.994.588a1.6 1.6 0 0 1 .35 1.036c0 .588-.219 1.055-.658 1.4-.439.336-1.064.504-1.876.504h-2.884Zm.616-3.934h2.058c.383 0 .677-.089.882-.266.215-.177.322-.42.322-.728 0-.317-.107-.56-.322-.728-.205-.168-.499-.252-.882-.252h-2.058v1.974Zm0 3.024h2.184c.877 0 1.316-.355 1.316-1.064 0-.7-.439-1.05-1.316-1.05h-2.184v2.114Zm8.647 1.036c-.476 0-.901-.093-1.274-.28a2.38 2.38 0 0 1-.896-.756 1.877 1.877 0 0 1-.322-1.078c0-.504.126-.901.378-1.19.261-.289.686-.499 1.274-.63.597-.131 1.4-.196 2.408-.196h.476v-.364c0-.532-.112-.915-.336-1.148-.224-.233-.593-.35-1.106-.35a4.19 4.19 0 0 0-.938.112 4.422 4.422 0 0 0-.994.378c-.196.093-.359.107-.49.042a.523.523 0 0 1-.252-.308.631.631 0 0 1 .014-.434c.056-.149.173-.261.35-.336a5.825 5.825 0 0 1 1.218-.406 5.03 5.03 0 0 1 1.134-.14c.933 0 1.624.224 2.072.672.448.439.672 1.129.672 2.072v3.598c0 .476-.219.714-.658.714-.448 0-.672-.238-.672-.714v-.518c-.168.392-.429.7-.784.924-.355.224-.779.336-1.274.336Zm.28-1.008c.504 0 .924-.177 1.26-.532.336-.355.504-.803.504-1.344v-.378h-.462c-.681 0-1.218.033-1.61.098-.383.065-.658.177-.826.336-.159.149-.238.359-.238.63 0 .355.121.644.364.868.243.215.579.322 1.008.322Z" fill="#303030"/><circle cx="194.654" cy="315.02" r="3" fill="#FCB500"/><path d="M207.7 319.646c-.691 0-1.288-.145-1.792-.434a3.013 3.013 0 0 1-1.176-1.218c-.271-.532-.406-1.162-.406-1.89s.135-1.353.406-1.876c.28-.532.672-.943 1.176-1.232.504-.289 1.101-.434 1.792-.434.672 0 1.26.145 1.764.434.504.289.896.7 1.176 1.232.28.523.42 1.148.42 1.876s-.14 1.358-.42 1.89c-.28.523-.672.929-1.176 1.218-.504.289-1.092.434-1.764.434Zm0-1.092c.578 0 1.045-.21 1.4-.63.354-.42.532-1.027.532-1.82 0-.793-.178-1.395-.532-1.806-.355-.42-.822-.63-1.4-.63-.588 0-1.06.21-1.414.63-.355.411-.532 1.013-.532 1.806 0 .793.177 1.4.532 1.82.354.42.826.63 1.414.63Zm5.495 1.022c-.28 0-.504-.084-.672-.252a.9.9 0 0 1-.238-.644c0-.261.079-.471.238-.63.168-.168.392-.252.672-.252.271 0 .485.084.644.252.159.159.238.369.238.63a.9.9 0 0 1-.238.644c-.159.168-.373.252-.644.252Zm7.266-.056c-.523 0-.784-.261-.784-.784v-8.302c0-.523.261-.784.784-.784h5.362c.401 0 .602.191.602.574 0 .401-.201.602-.602.602h-4.746v3.066h2.884c1.036 0 1.843.238 2.422.714.588.467.882 1.162.882 2.086 0 .924-.294 1.629-.882 2.114-.579.476-1.386.714-2.422.714h-3.5Zm.616-1.176h2.716c1.372 0 2.058-.546 2.058-1.638 0-1.092-.686-1.638-2.058-1.638h-2.716v3.276Zm10.038 1.302c-.476 0-.901-.093-1.274-.28a2.38 2.38 0 0 1-.896-.756 1.877 1.877 0 0 1-.322-1.078c0-.504.126-.901.378-1.19.261-.289.686-.499 1.274-.63.597-.131 1.4-.196 2.408-.196h.476v-.364c0-.532-.112-.915-.336-1.148-.224-.233-.593-.35-1.106-.35a4.19 4.19 0 0 0-.938.112 4.422 4.422 0 0 0-.994.378c-.196.093-.359.107-.49.042a.523.523 0 0 1-.252-.308.631.631 0 0 1 .014-.434c.056-.149.173-.261.35-.336a5.825 5.825 0 0 1 1.218-.406 5.03 5.03 0 0 1 1.134-.14c.933 0 1.624.224 2.072.672.448.439.672 1.129.672 2.072v3.598c0 .476-.219.714-.658.714-.448 0-.672-.238-.672-.714v-.518c-.168.392-.429.7-.784.924-.355.224-.779.336-1.274.336Zm.28-1.008c.504 0 .924-.177 1.26-.532.336-.355.504-.803.504-1.344v-.378h-.462c-.681 0-1.218.033-1.61.098-.383.065-.658.177-.826.336-.159.149-.238.359-.238.63 0 .355.121.644.364.868.243.215.579.322 1.008.322Zm10.554.98c-.467 0-.7-.238-.7-.714v-5.082h-2.478v.826c0 1.391-.154 2.469-.462 3.234-.308.765-.822 1.316-1.54 1.652-.196.084-.374.093-.532.028a.607.607 0 0 1-.35-.294.615.615 0 0 1-.056-.448c.046-.159.163-.294.35-.406.504-.289.84-.723 1.008-1.302.177-.588.266-1.423.266-2.506v-1.12c0-.532.266-.798.798-.798h3.612c.532 0 .798.266.798.798v5.418c0 .476-.238.714-.714.714Zm3.499 0c-.439 0-.658-.252-.658-.756v-5.586c0-.457.215-.686.644-.686.429 0 .644.229.644.686v4.368l3.43-4.592c.084-.121.187-.229.308-.322s.289-.14.504-.14c.429 0 .644.252.644.756v5.586c0 .457-.21.686-.63.686-.439 0-.658-.229-.658-.686v-4.354l-3.43 4.592a1.604 1.604 0 0 1-.308.308c-.121.093-.285.14-.49.14Z" fill="#303030"/><circle cx="283.288" cy="277.51" r="3" fill="#FCB500"/><path d="M296.334 282.136c-.691 0-1.288-.145-1.792-.434a3.013 3.013 0 0 1-1.176-1.218c-.271-.532-.406-1.162-.406-1.89s.135-1.353.406-1.876c.28-.532.672-.943 1.176-1.232.504-.289 1.101-.434 1.792-.434.672 0 1.26.145 1.764.434.504.289.896.7 1.176 1.232.28.523.42 1.148.42 1.876s-.14 1.358-.42 1.89c-.28.523-.672.929-1.176 1.218-.504.289-1.092.434-1.764.434Zm0-1.092c.579 0 1.045-.21 1.4-.63.355-.42.532-1.027.532-1.82 0-.793-.177-1.395-.532-1.806-.355-.42-.821-.63-1.4-.63-.588 0-1.059.21-1.414.63-.355.411-.532 1.013-.532 1.806 0 .793.177 1.4.532 1.82.355.42.826.63 1.414.63Zm5.495 1.022c-.28 0-.504-.084-.672-.252a.904.904 0 0 1-.238-.644c0-.261.08-.471.238-.63.168-.168.392-.252.672-.252.271 0 .486.084.644.252.159.159.238.369.238.63a.9.9 0 0 1-.238.644c-.158.168-.373.252-.644.252Zm10.906.07c-.999 0-1.853-.205-2.562-.616a4.131 4.131 0 0 1-1.638-1.75c-.373-.765-.56-1.666-.56-2.702s.187-1.932.56-2.688a4.131 4.131 0 0 1 1.638-1.75c.709-.411 1.563-.616 2.562-.616a5.55 5.55 0 0 1 1.582.224c.513.149.957.364 1.33.644.205.131.322.289.35.476a.645.645 0 0 1-.084.49.615.615 0 0 1-.378.28c-.168.047-.355 0-.56-.14a3.38 3.38 0 0 0-1.036-.518 3.929 3.929 0 0 0-1.162-.168c-1.064 0-1.876.327-2.436.98s-.84 1.582-.84 2.786.28 2.137.84 2.8c.56.653 1.372.98 2.436.98.411 0 .803-.056 1.176-.168a3.51 3.51 0 0 0 1.078-.532c.205-.131.387-.173.546-.126.159.037.28.126.364.266.084.14.112.299.084.476-.028.168-.126.313-.294.434a4.147 4.147 0 0 1-1.372.7 5.458 5.458 0 0 1-1.624.238Zm6.345 2.492c-.262 0-.444-.098-.546-.294-.094-.187-.084-.406.028-.658l.826-1.848-2.492-5.782c-.112-.252-.117-.476-.014-.672.112-.196.326-.294.644-.294.168 0 .303.042.406.126.112.084.21.229.294.434l1.918 4.732 1.946-4.732c.084-.215.182-.359.294-.434.112-.084.266-.126.462-.126.252 0 .424.098.518.294.093.196.088.415-.014.658l-3.5 8.05c-.094.215-.201.359-.322.434a.795.795 0 0 1-.448.112Zm10.737-2.52c-.466 0-.7-.238-.7-.714v-5.082h-2.478v.826c0 1.391-.154 2.469-.462 3.234-.308.765-.821 1.316-1.54 1.652-.196.084-.373.093-.532.028a.625.625 0 0 1-.406-.742c.047-.159.164-.294.35-.406.504-.289.84-.723 1.008-1.302.178-.588.266-1.423.266-2.506v-1.12c0-.532.266-.798.798-.798h3.612c.532 0 .798.266.798.798v5.418c0 .476-.238.714-.714.714Zm5.04.028c-.476 0-.901-.093-1.274-.28a2.372 2.372 0 0 1-.896-.756 1.877 1.877 0 0 1-.322-1.078c0-.504.126-.901.378-1.19.261-.289.686-.499 1.274-.63.597-.131 1.4-.196 2.408-.196h.476v-.364c0-.532-.112-.915-.336-1.148-.224-.233-.593-.35-1.106-.35-.299 0-.612.037-.938.112a4.404 4.404 0 0 0-.994.378c-.196.093-.36.107-.49.042a.516.516 0 0 1-.252-.308.631.631 0 0 1 .014-.434c.056-.149.172-.261.35-.336.41-.187.816-.322 1.218-.406a5.03 5.03 0 0 1 1.134-.14c.933 0 1.624.224 2.072.672.448.439.672 1.129.672 2.072v3.598c0 .476-.22.714-.658.714-.448 0-.672-.238-.672-.714v-.518a2 2 0 0 1-.784.924c-.355.224-.78.336-1.274.336Zm.28-1.008c.504 0 .924-.177 1.26-.532.336-.355.504-.803.504-1.344v-.378h-.462c-.682 0-1.218.033-1.61.098-.383.065-.658.177-.826.336-.159.149-.238.359-.238.63 0 .355.121.644.364.868.242.215.578.322 1.008.322Zm5.919.882c-.476 0-.714-.238-.714-.714v-5.39c0-.485.238-.728.714-.728h2.772c.84 0 1.452.159 1.834.476.392.308.588.747.588 1.316 0 .355-.102.667-.308.938a1.677 1.677 0 0 1-.812.574c.43.103.761.299.994.588.234.289.35.635.35 1.036 0 .588-.219 1.055-.658 1.4-.438.336-1.064.504-1.876.504h-2.884Zm.616-3.934h2.058c.383 0 .677-.089.882-.266.215-.177.322-.42.322-.728 0-.317-.107-.56-.322-.728-.205-.168-.499-.252-.882-.252h-2.058v1.974Zm0 3.024h2.184c.878 0 1.316-.355 1.316-1.064 0-.7-.438-1.05-1.316-1.05h-2.184v2.114Zm9.67 1.036c-1.12 0-2.002-.313-2.646-.938-.644-.635-.966-1.498-.966-2.59 0-.7.14-1.316.42-1.848a3.165 3.165 0 0 1 1.19-1.26c.504-.299 1.082-.448 1.736-.448.942 0 1.684.303 2.226.91.541.597.812 1.423.812 2.478 0 .317-.187.476-.56.476h-4.452c.102 1.419.854 2.128 2.254 2.128.28 0 .574-.033.882-.098.308-.075.606-.205.896-.392.196-.112.364-.149.504-.112a.43.43 0 0 1 .322.238.541.541 0 0 1 .028.42c-.038.149-.145.28-.322.392a3.609 3.609 0 0 1-1.12.49c-.42.103-.822.154-1.204.154Zm-.21-6.09c-.588 0-1.055.182-1.4.546-.346.364-.556.849-.63 1.456h3.822c-.028-.635-.196-1.125-.504-1.47-.308-.355-.738-.532-1.288-.532Zm7.684 6.09c-.7 0-1.307-.145-1.82-.434a3.091 3.091 0 0 1-1.176-1.246c-.28-.541-.42-1.176-.42-1.904 0-1.083.308-1.937.924-2.562.616-.625 1.446-.938 2.492-.938.326 0 .667.051 1.022.154.364.093.7.252 1.008.476a.496.496 0 0 1 .252.364.573.573 0 0 1-.07.406.53.53 0 0 1-.294.252c-.131.037-.28.009-.448-.084a2.215 2.215 0 0 0-.686-.336 2.2 2.2 0 0 0-.672-.112c-.663 0-1.176.21-1.54.63-.355.411-.532.999-.532 1.764s.177 1.367.532 1.806c.364.429.877.644 1.54.644a2.396 2.396 0 0 0 1.358-.434c.168-.093.312-.117.434-.07.13.047.224.135.28.266a.601.601 0 0 1 .056.406c-.019.14-.103.257-.252.35a2.95 2.95 0 0 1-.98.462c-.346.093-.682.14-1.008.14Zm4.333-.028c-.439 0-.658-.252-.658-.756v-5.586c0-.457.214-.686.644-.686.429 0 .644.229.644.686v4.368l3.43-4.592c.084-.121.186-.229.308-.322.121-.093.289-.14.504-.14.429 0 .644.252.644.756v5.586c0 .457-.21.686-.63.686-.439 0-.658-.229-.658-.686v-4.354l-3.43 4.592a1.604 1.604 0 0 1-.308.308c-.122.093-.285.14-.49.14Z" fill="#303030"/><circle cx="153.895" cy="257.998" r="3" fill="#FCB500"/><path d="M166.941 262.624c-.691 0-1.288-.145-1.792-.434a3.025 3.025 0 0 1-1.176-1.218c-.271-.532-.406-1.162-.406-1.89s.135-1.354.406-1.876c.28-.532.672-.943 1.176-1.232.504-.29 1.101-.434 1.792-.434.672 0 1.26.144 1.764.434.504.289.896.7 1.176 1.232.28.522.42 1.148.42 1.876s-.14 1.358-.42 1.89c-.28.522-.672.928-1.176 1.218-.504.289-1.092.434-1.764.434Zm0-1.092c.578 0 1.045-.21 1.4-.63.354-.42.532-1.027.532-1.82 0-.794-.178-1.396-.532-1.806-.355-.42-.822-.63-1.4-.63-.588 0-1.06.21-1.414.63-.355.41-.532 1.012-.532 1.806 0 .793.177 1.4.532 1.82.354.42.826.63 1.414.63Zm5.495 1.022c-.28 0-.504-.084-.672-.252a.9.9 0 0 1-.238-.644c0-.262.079-.472.238-.63.168-.168.392-.252.672-.252.271 0 .485.084.644.252.159.158.238.368.238.63a.9.9 0 0 1-.238.644c-.159.168-.373.252-.644.252Zm7.21.042c-.486 0-.728-.248-.728-.742v-8.596c0-.486.242-.728.728-.728.485 0 .728.242.728.728v3.668h1.582l2.604-4.018c.13-.206.284-.327.462-.364a.665.665 0 0 1 .504.084c.158.084.261.21.308.378.056.168.018.354-.112.56l-2.394 3.598c.392.149.737.382 1.036.7.298.308.564.695.798 1.162l1.246 2.562c.121.233.14.434.056.602a.64.64 0 0 1-.378.35.75.75 0 0 1-.532 0c-.187-.056-.332-.192-.434-.406l-1.176-2.506c-.252-.532-.546-.91-.882-1.134-.336-.234-.752-.35-1.246-.35h-1.442v3.71c0 .494-.243.742-.728.742Zm10.573.028c-.476 0-.9-.094-1.274-.28a2.38 2.38 0 0 1-.896-.756 1.887 1.887 0 0 1-.322-1.078c0-.504.126-.901.378-1.19.262-.29.686-.5 1.274-.63.598-.131 1.4-.196 2.408-.196h.476v-.364c0-.532-.112-.915-.336-1.148-.224-.234-.592-.35-1.106-.35-.298 0-.611.037-.938.112-.317.074-.648.2-.994.378-.196.093-.359.107-.49.042a.526.526 0 0 1-.252-.308.637.637 0 0 1 .014-.434.59.59 0 0 1 .35-.336 5.825 5.825 0 0 1 1.218-.406c.402-.094.78-.14 1.134-.14.934 0 1.624.224 2.072.672.448.438.672 1.129.672 2.072v3.598c0 .476-.219.714-.658.714-.448 0-.672-.238-.672-.714v-.518c-.168.392-.429.7-.784.924-.354.224-.779.336-1.274.336Zm.28-1.008c.504 0 .924-.178 1.26-.532.336-.355.504-.803.504-1.344v-.378h-.462c-.681 0-1.218.032-1.61.098-.382.065-.658.177-.826.336-.158.149-.238.359-.238.63 0 .354.122.644.364.868.243.214.579.322 1.008.322Zm10.554.98c-.467 0-.7-.238-.7-.714V256.8h-2.478v.826c0 1.39-.154 2.468-.462 3.234-.308.765-.821 1.316-1.54 1.652-.196.084-.373.093-.532.028a.62.62 0 0 1-.406-.742c.047-.159.163-.294.35-.406.504-.29.84-.724 1.008-1.302.177-.588.266-1.424.266-2.506v-1.12c0-.532.266-.798.798-.798h3.612c.532 0 .798.266.798.798v5.418c0 .476-.238.714-.714.714Zm3.499 0c-.438 0-.658-.252-.658-.756v-5.586c0-.458.215-.686.644-.686.43 0 .644.228.644.686v4.368l3.43-4.592c.084-.122.187-.229.308-.322.122-.094.29-.14.504-.14.43 0 .644.252.644.756v5.586c0 .457-.21.686-.63.686-.438 0-.658-.229-.658-.686v-4.354l-3.43 4.592a1.604 1.604 0 0 1-.308.308c-.121.093-.284.14-.49.14Zm8.271 0c-.42 0-.63-.224-.63-.672v-5.6c0-.504.215-.756.644-.756.205 0 .364.051.476.154.112.102.205.219.28.35l2.24 3.92 2.226-3.92c.084-.14.182-.257.294-.35.112-.103.266-.154.462-.154.429 0 .644.252.644.756v5.6c0 .448-.21.672-.63.672-.411 0-.616-.224-.616-.672v-4.06l-1.89 3.276a.845.845 0 0 1-.182.224.454.454 0 0 1-.308.098.477.477 0 0 1-.322-.098 1.894 1.894 0 0 1-.168-.224l-1.904-3.276v4.06c0 .448-.205.672-.616.672Zm10.961.028c-.476 0-.901-.094-1.274-.28a2.372 2.372 0 0 1-.896-.756 1.88 1.88 0 0 1-.322-1.078c0-.504.126-.901.378-1.19.261-.29.686-.5 1.274-.63.597-.131 1.4-.196 2.408-.196h.476v-.364c0-.532-.112-.915-.336-1.148-.224-.234-.593-.35-1.106-.35-.299 0-.612.037-.938.112-.318.074-.649.2-.994.378-.196.093-.36.107-.49.042a.52.52 0 0 1-.252-.308.631.631 0 0 1 .014-.434.588.588 0 0 1 .35-.336c.41-.187.816-.322 1.218-.406.401-.094.779-.14 1.134-.14.933 0 1.624.224 2.072.672.448.438.672 1.129.672 2.072v3.598c0 .476-.22.714-.658.714-.448 0-.672-.238-.672-.714v-.518a2 2 0 0 1-.784.924c-.355.224-.78.336-1.274.336Zm.28-1.008c.504 0 .924-.178 1.26-.532.336-.355.504-.803.504-1.344v-.378h-.462c-.682 0-1.218.032-1.61.098-.383.065-.658.177-.826.336-.159.149-.238.359-.238.63 0 .354.121.644.364.868.242.214.578.322 1.008.322Zm5.919.98c-.476 0-.714-.238-.714-.714v-5.6c0-.476.238-.714.714-.714.467 0 .7.238.7.714v2.142h3.402v-2.142c0-.476.234-.714.7-.714.476 0 .714.238.714.714v5.6c0 .476-.238.714-.714.714-.466 0-.7-.238-.7-.714v-2.338h-3.402v2.338c0 .476-.233.714-.7.714Zm9.768 0c-.476 0-.714-.238-.714-.714V256.8h-1.904c-.411 0-.616-.192-.616-.574 0-.374.205-.56.616-.56h5.222c.411 0 .616.186.616.56 0 .382-.205.574-.616.574h-1.904v5.082c0 .476-.233.714-.7.714Zm6.455.028c-.476 0-.901-.094-1.274-.28a2.372 2.372 0 0 1-.896-.756 1.88 1.88 0 0 1-.322-1.078c0-.504.126-.901.378-1.19.261-.29.686-.5 1.274-.63.597-.131 1.4-.196 2.408-.196h.476v-.364c0-.532-.112-.915-.336-1.148-.224-.234-.593-.35-1.106-.35-.299 0-.612.037-.938.112-.318.074-.649.2-.994.378-.196.093-.36.107-.49.042a.52.52 0 0 1-.252-.308.631.631 0 0 1 .014-.434.588.588 0 0 1 .35-.336c.41-.187.816-.322 1.218-.406.401-.094.779-.14 1.134-.14.933 0 1.624.224 2.072.672.448.438.672 1.129.672 2.072v3.598c0 .476-.22.714-.658.714-.448 0-.672-.238-.672-.714v-.518a2 2 0 0 1-.784.924c-.355.224-.78.336-1.274.336Zm.28-1.008c.504 0 .924-.178 1.26-.532.336-.355.504-.803.504-1.344v-.378h-.462c-.682 0-1.218.032-1.61.098-.383.065-.658.177-.826.336-.159.149-.238.359-.238.63 0 .354.121.644.364.868.242.214.578.322 1.008.322Zm5.919.98c-.476 0-.714-.238-.714-.714v-5.6c0-.476.238-.714.714-.714.467 0 .7.238.7.714v2.142h3.402v-2.142c0-.476.234-.714.7-.714.476 0 .714.238.714.714v5.6c0 .476-.238.714-.714.714-.466 0-.7-.238-.7-.714v-2.338h-3.402v2.338c0 .476-.233.714-.7.714Z" fill="#303030"/></svg>