<svg width="26" height="26" viewBox="0 0 26 26" fill="none" xmlns="http://www.w3.org/2000/svg">
<path d="M21.1816 3.24657C20.9207 3.26555 20.6647 3.32674 20.4235 3.42776H20.4203C20.1887 3.51957 19.0878 3.9827 17.414 4.6847L11.4161 7.21076C7.11232 9.02263 2.88164 10.8069 2.88164 10.8069L2.93201 10.7874C2.93201 10.7874 2.64032 10.8833 2.33564 11.0921C2.1474 11.2119 1.98543 11.3686 1.85951 11.5528C1.71001 11.7721 1.58976 12.1077 1.63445 12.4546C1.70757 13.0413 2.08782 13.3931 2.36082 13.5873C2.63707 13.7839 2.90032 13.8757 2.90032 13.8757H2.90682L6.87426 15.2123C7.0522 15.7834 8.08326 19.1732 8.33107 19.954C8.47732 20.4204 8.61951 20.7121 8.79745 20.9347C8.88357 21.0485 8.98432 21.1435 9.10539 21.2199C9.16832 21.2565 9.23543 21.2854 9.30526 21.306L9.26464 21.2963C9.27682 21.2995 9.28657 21.3093 9.29551 21.3125C9.32801 21.3215 9.34995 21.3247 9.39139 21.3312C10.0194 21.5213 10.524 21.1313 10.524 21.1313L10.5524 21.1086L12.8949 18.9758L16.8209 21.9877L16.9103 22.0259C17.7284 22.385 18.5572 22.1851 18.9951 21.8325C19.4363 21.4774 19.6078 21.0233 19.6078 21.0233L19.6362 20.9501L22.6701 5.40782C22.7562 5.02432 22.7781 4.6652 22.6831 4.31663C22.585 3.96387 22.3587 3.66046 22.0485 3.46595C21.788 3.3076 21.486 3.23117 21.1816 3.24657ZM21.0995 4.9122C21.0963 4.96338 21.106 4.9577 21.0833 5.05601V5.06495L18.0778 20.4456C18.0648 20.4675 18.0429 20.5154 17.9828 20.5634C17.9194 20.6138 17.869 20.6455 17.6049 20.5406L12.8031 16.8592L9.90245 19.5031L10.5118 15.6112L18.3573 8.2987C18.6807 7.99807 18.5726 7.9347 18.5726 7.9347C18.5954 7.56582 18.0843 7.82663 18.0843 7.82663L8.19132 13.9553L8.18807 13.9391L3.44632 12.3425V12.3393L3.43414 12.3368C3.44245 12.3341 3.45059 12.3308 3.45851 12.3271L3.48451 12.3141L3.5097 12.3051C3.5097 12.3051 7.74364 10.5209 12.0474 8.70901C14.2022 7.80145 16.3732 6.88738 18.0429 6.18213C19.7126 5.48095 20.9468 4.96663 21.0166 4.93901C21.0833 4.91301 21.0516 4.91301 21.0995 4.91301V4.9122Z" fill="white"/>
</svg>
