<svg width="26" height="26" fill="none" xmlns="http://www.w3.org/2000/svg"><path d="M21.182 3.247c-.261.019-.517.08-.758.18h-.004c-.231.093-1.332.556-3.006 1.258L11.416 7.21c-4.304 1.812-8.534 3.596-8.534 3.596l.05-.02s-.292.096-.596.305a1.65 1.65 0 0 0-.476.46c-.15.22-.27.556-.226.903.074.586.454.938.727 1.132.276.197.54.289.54.289h.006l3.967 1.336c.178.571 1.21 3.961 1.457 4.742.146.466.289.758.466.98.087.114.187.21.308.286a.91.91 0 0 0 .2.086l-.04-.01c.012.003.022.013.03.017.033.009.055.012.096.018.628.19 1.133-.2 1.133-.2l.028-.022 2.343-2.133 3.926 3.012.09.038c.817.359 1.646.16 2.084-.194.441-.355.613-.809.613-.809l.028-.073L22.67 5.408c.086-.384.108-.743.013-1.091a1.468 1.468 0 0 0-.634-.851 1.52 1.52 0 0 0-.867-.22ZM21.1 4.912c-.004.051.006.046-.017.144v.009l-3.005 15.38c-.013.023-.035.07-.095.118-.064.05-.114.082-.378-.022l-4.802-3.682-2.9 2.644.609-3.892L18.357 8.3c.324-.3.216-.364.216-.364.022-.37-.489-.108-.489-.108l-9.893 6.128-.003-.016-4.742-1.597v-.003l-.012-.002a.214.214 0 0 0 .025-.01l.026-.013.025-.009 8.537-3.596c2.155-.908 4.326-1.822 5.996-2.527 1.67-.701 2.904-1.215 2.974-1.243.066-.026.035-.026.082-.026Z" fill="#fff"/></svg>