<svg width="26" height="26" fill="none" xmlns="http://www.w3.org/2000/svg"><path d="M18.117 15.232c-.277-.142-1.656-.818-1.912-.91-.257-.096-.445-.141-.63.143-.188.282-.721.909-.889 1.1-.162.187-.327.21-.604.07-1.645-.822-2.724-1.467-3.809-3.328-.286-.495.287-.46.823-1.529.091-.188.046-.348-.025-.49-.071-.142-.63-1.518-.864-2.08-.226-.545-.46-.469-.63-.48-.162-.01-.347-.01-.535-.01-.188 0-.49.072-.746.349-.257.281-.98.96-.98 2.335 0 1.377 1.002 2.71 1.14 2.898.142.188 1.972 3.01 4.783 4.227 1.777.767 2.473.833 3.362.7.54-.08 1.655-.675 1.886-1.332.231-.655.231-1.216.163-1.333-.069-.124-.257-.196-.533-.33Z" fill="#fff"/><path d="M23.491 8.592a11.377 11.377 0 0 0-2.445-3.638 11.282 11.282 0 0 0-3.638-2.445A11.321 11.321 0 0 0 13 1.625h-.05A11.349 11.349 0 0 0 1.624 13.053a11.41 11.41 0 0 0 1.219 5.076v3.86c0 .644.523 1.167 1.168 1.167h3.862a11.41 11.41 0 0 0 5.075 1.219h.054c1.52 0 2.996-.294 4.385-.87a11.285 11.285 0 0 0 3.625-2.418 11.348 11.348 0 0 0 3.362-8.036 11.329 11.329 0 0 0-.884-4.459Zm-3.836 11.121A9.395 9.395 0 0 1 13 22.445h-.043a9.479 9.479 0 0 1-4.395-1.104l-.213-.114H4.774v-3.575l-.115-.214a9.48 9.48 0 0 1-1.104-4.395 9.387 9.387 0 0 1 2.732-6.698 9.374 9.374 0 0 1 6.673-2.79h.043a9.4 9.4 0 0 1 3.661.733 9.385 9.385 0 0 1 3.021 2.032 9.406 9.406 0 0 1 2.765 6.723 9.41 9.41 0 0 1-2.795 6.67Z" fill="#fff"/></svg>