<svg width="40" height="40" viewBox="0 0 40 40" fill="currentColor" xmlns="http://www.w3.org/2000/svg">
<path d="M32.8513 5.09313C29.062 4.41406 25.5725 2.34469 23.8297 1.17164C22.691 0.405156 21.3667 0 19.9998 0C18.633 0 17.3087 0.405156 16.1701 1.17164C14.4273 2.34469 10.9377 4.41414 7.14852 5.0932C4.9043 5.49531 3.27539 7.43711 3.27539 9.71016V19.1405C3.27539 22.2559 4.14695 25.2929 5.86594 28.167C7.2107 30.4155 9.07406 32.5645 11.4041 34.5543C15.3218 37.9 19.2012 39.6447 19.3644 39.7173L19.9998 40L20.6355 39.7173C20.7987 39.6447 24.678 37.9 28.5958 34.5543C30.9257 32.5645 32.7891 30.4155 34.1339 28.167C35.8529 25.2928 36.7245 22.2559 36.7245 19.1405V9.71008C36.7245 7.43703 35.0955 5.49523 32.8513 5.09313ZM33.5982 19.1405C33.5982 23.785 31.2519 28.1541 26.6242 32.1267C23.9342 34.4359 21.2031 35.9411 19.9999 36.552C17.2342 35.1467 6.40141 29.0101 6.40141 19.1405V9.71008C6.40141 8.95266 6.9475 8.305 7.69992 8.17016C12.0529 7.39008 15.9689 5.07523 17.9156 3.76492C18.5365 3.34703 19.2573 3.12609 19.9998 3.12609C20.7424 3.12609 21.4631 3.34703 22.084 3.765C24.0308 5.07531 27.9467 7.39016 32.2997 8.17031C33.052 8.30516 33.5982 8.95273 33.5982 9.71023V19.1405Z" fill="#303030"/>
<path d="M17.5793 23.0025L12.2371 18.001L10.1006 20.2831L17.7808 27.4734L29.9977 13.7739L27.6646 11.6932L17.5793 23.0025Z" fill="#303030"/>
</svg>
